ToneOZQSPinyinKaiTrad-Regular.ufo
<glyph name="quotedbl" format="2">
  <unicode hex="0022" />
  <advance width="358" />
  <outline>
    <contour>
      <point x="145" y="504" type="line" />
      <point x="145" y="488" />
      <point x="114" y="487" type="qcurve" />
      <point x="103" y="487" />
      <point x="82" y="496" />
      <point x="82" y="504" type="qcurve" />
      <point x="76" y="720" type="line" />
      <point x="76" y="731" />
      <point x="100" y="742" />
      <point x="128" y="742" />
      <point x="152" y="731" />
      <point x="152" y="720" type="qcurve" />
    </contour>
    <contour>
      <point x="276" y="504" type="line" />
      <point x="276" y="488" />
      <point x="245" y="487" type="qcurve" />
      <point x="234" y="487" />
      <point x="213" y="496" />
      <point x="213" y="504" type="qcurve" />
      <point x="207" y="720" type="line" />
      <point x="207" y="731" />
      <point x="231" y="742" />
      <point x="259" y="742" />
      <point x="283" y="731" />
      <point x="283" y="720" type="qcurve" />
    </contour>
  </outline>
</glyph>
<glyph name="numbersign" format="2">
  <unicode hex="0023" />
  <advance width="614" />
  <outline>
    <contour>
      <point x="403" y="476" type="line" />
      <point x="250" y="476" type="line" />
      <point x="244" y="426" />
      <point x="230" y="334" />
      <point x="226" y="304" type="qcurve" />
      <point x="222" y="274" type="line" />
      <point x="376" y="274" type="line" />
    </contour>
    <contour>
      <point x="335" y="7" type="qcurve" />
      <point x="335" y="9" type="line" />
      <point x="338" y="22" />
      <point x="347" y="58" />
      <point x="349" y="76" type="qcurve" />
      <point x="368" y="215" type="line" />
      <point x="215" y="215" type="line" />
      <point x="196" y="74" type="line" />
      <point x="194" y="56" />
      <point x="191" y="25" />
      <point x="190" y="13" type="qcurve" />
      <point x="187" y="-7" />
      <point x="118" y="-7" />
      <point x="118" y="7" type="qcurve" />
      <point x="118" y="9" type="line" />
      <point x="121" y="22" />
      <point x="129" y="56" />
      <point x="132" y="76" type="qcurve" />
      <point x="151" y="215" type="line" />
      <point x="137" y="215" type="line" />
      <point x="78" y="215" />
      <point x="59" y="212" type="qcurve" />
      <point x="58" y="212" type="line" />
      <point x="49" y="212" />
      <point x="38" y="239" />
      <point x="38" y="252" type="qcurve" />
      <point x="38" y="277" />
      <point x="54" y="276" type="qcurve" />
      <point x="85" y="274" />
      <point x="138" y="274" type="qcurve" />
      <point x="159" y="274" type="line" />
      <point x="186" y="476" type="line" />
      <point x="164" y="476" type="line" />
      <point x="107" y="476" />
      <point x="86" y="473" type="qcurve" />
      <point x="85" y="473" type="line" />
      <point x="77" y="473" />
      <point x="65" y="500" />
      <point x="65" y="513" type="qcurve" />
      <point x="65" y="538" />
      <point x="81" y="538" type="qcurve" />
      <point x="112" y="536" />
      <point x="165" y="536" type="qcurve" />
      <point x="195" y="536" type="line" />
      <point x="214" y="678" type="line" />
      <point x="216" y="686" />
      <point x="218" y="722" type="qcurve" />
      <point x="218" y="734" />
      <point x="258" y="734" />
      <point x="287" y="723" />
      <point x="287" y="713" type="qcurve" />
      <point x="287" y="710" type="line" />
      <point x="285" y="703" />
      <point x="279" y="682" />
      <point x="278" y="676" type="qcurve" />
      <point x="272" y="635" type="line" />
      <point x="266" y="593" />
      <point x="258" y="536" type="qcurve" />
      <point x="412" y="536" type="line" />
      <point x="431" y="678" type="line" />
      <point x="433" y="686" />
      <point x="435" y="722" type="qcurve" />
      <point x="435" y="734" />
      <point x="475" y="734" />
      <point x="504" y="723" />
      <point x="504" y="713" type="qcurve" />
      <point x="504" y="710" type="line" />
      <point x="497" y="688" />
      <point x="495" y="676" type="qcurve" />
      <point x="475" y="536" type="line" />
      <point x="493" y="536" type="line" />
      <point x="523" y="536" />
      <point x="565" y="539" type="qcurve" />
      <point x="566" y="539" type="line" />
      <point x="576" y="539" />
      <point x="589" y="514" />
      <point x="589" y="502" type="qcurve" />
      <point x="589" y="475" />
      <point x="571" y="475" type="qcurve" />
      <point x="548" y="476" />
      <point x="526" y="476" type="qcurve" />
      <point x="467" y="476" type="line" />
      <point x="440" y="274" type="line" />
      <point x="466" y="274" type="line" />
      <point x="496" y="274" />
      <point x="539" y="278" type="qcurve" />
      <point x="540" y="278" type="line" />
      <point x="550" y="278" />
      <point x="562" y="253" />
      <point x="562" y="242" type="qcurve" />
      <point x="562" y="214" />
      <point x="545" y="214" type="qcurve" />
      <point x="522" y="215" />
      <point x="506" y="215" type="qcurve" />
      <point x="432" y="215" type="line" />
      <point x="413" y="74" type="line" />
      <point x="411" y="55" />
      <point x="409" y="25" />
      <point x="408" y="13" type="qcurve" />
      <point x="405" y="-7" />
      <point x="335" y="-7" />
    </contour>
  </outline>
</glyph>
<glyph name="percent" format="2">
  <unicode hex="0025" />
  <advance width="819" />
  <outline>
    <contour>
      <point x="610" y="38" type="qcurve" />
      <point x="701" y="38" />
      <point x="701" y="166" type="qcurve" />
      <point x="701" y="214" />
      <point x="658" y="288" />
      <point x="578" y="288" />
      <point x="518" y="227" />
      <point x="518" y="89" />
      <point x="556" y="55" type="qcurve" />
      <point x="576" y="38" />
    </contour>
    <contour>
      <point x="534" y="312" type="qcurve" />
      <point x="566" y="344" />
      <point x="665" y="344" />
      <point x="697" y="319" type="qcurve" />
      <point x="764" y="269" />
      <point x="764" y="162" type="qcurve" />
      <point x="764" y="114" />
      <point x="748" y="72" type="qcurve" />
      <point x="712" y="-18" />
      <point x="612" y="-18" type="qcurve" />
      <point x="531" y="-18" />
      <point x="455" y="82" />
      <point x="455" y="162" type="qcurve" />
      <point x="455" y="204" />
      <point x="481" y="283" />
      <point x="507" y="308" type="qcurve" />
      <point x="514" y="316" />
      <point x="530" y="316" />
    </contour>
    <contour>
      <point x="119" y="560" type="qcurve" />
      <point x="119" y="436" />
      <point x="211" y="436" type="qcurve" />
      <point x="257" y="436" />
      <point x="302" y="505" />
      <point x="302" y="612" />
      <point x="259" y="686" />
      <point x="178" y="686" />
      <point x="119" y="623" />
    </contour>
    <contour>
      <point x="134" y="711" type="qcurve" />
      <point x="166" y="743" />
      <point x="265" y="742" />
      <point x="298" y="718" type="qcurve" />
      <point x="365" y="668" />
      <point x="365" y="560" type="qcurve" />
      <point x="365" y="512" />
      <point x="348" y="471" type="qcurve" />
      <point x="312" y="380" />
      <point x="213" y="380" type="qcurve" />
      <point x="132" y="380" />
      <point x="55" y="480" />
      <point x="55" y="560" type="qcurve" />
      <point x="55" y="602" />
      <point x="82" y="681" />
      <point x="108" y="707" type="qcurve" />
      <point x="115" y="715" />
      <point x="130" y="715" />
    </contour>
    <contour>
      <point x="563" y="667" type="line" />
      <point x="595" y="717" />
      <point x="606" y="741" type="qcurve" />
      <point x="610" y="750" />
      <point x="630" y="751" />
      <point x="641" y="741" type="qcurve" />
      <point x="667" y="716" />
      <point x="667" y="697" type="qcurve" />
      <point x="667" y="695" />
      <point x="665" y="691" type="qcurve" />
      <point x="638" y="658" />
      <point x="617" y="627" type="qcurve" />
      <point x="234" y="31" type="line" />
      <point x="215" y="-1" />
      <point x="197" y="-34" type="qcurve" />
      <point x="193" y="-41" />
      <point x="173" y="-41" />
      <point x="141" y="-6" />
      <point x="141" y="17" />
      <point x="166" y="44" />
      <point x="184" y="73" type="qcurve" />
    </contour>
  </outline>
</glyph>
<glyph name="quotesingle" format="2">
  <unicode hex="0027" />
  <advance width="358" />
  <outline>
    <contour>
      <point x="211" y="504" type="line" />
      <point x="211" y="488" />
      <point x="150" y="487" />
      <point x="147" y="504" type="qcurve" />
      <point x="141" y="720" type="line" />
      <point x="141" y="731" />
      <point x="166" y="742" />
      <point x="179" y="742" type="qcurve" />
      <point x="217" y="742" />
      <point x="217" y="721" type="qcurve" />
      <point x="217" y="720" type="line" />
    </contour>
  </outline>
</glyph>
<glyph name="parenleft" format="2">
  <unicode hex="0028" />
  <advance width="358" />
  <outline>
    <contour>
      <point x="323" y="-143" type="qcurve" />
      <point x="323" y="-162" />
      <point x="306" y="-163" type="qcurve" />
      <point x="298" y="-163" />
      <point x="274" y="-141" type="qcurve" />
      <point x="216" y="-87" />
      <point x="166" y="16" type="qcurve" />
      <point x="103" y="144" />
      <point x="102" y="446" />
      <point x="217" y="720" />
      <point x="276" y="784" type="qcurve" />
      <point x="301" y="810" />
      <point x="311" y="810" type="qcurve" />
      <point x="330" y="810" />
      <point x="331" y="793" type="qcurve" />
      <point x="331" y="785" />
      <point x="326" y="779" type="qcurve" />
      <point x="259" y="701" />
      <point x="179" y="412" />
      <point x="179" y="185" />
      <point x="253" y="-62" />
      <point x="314" y="-124" type="qcurve" />
      <point x="323" y="-132" />
    </contour>
  </outline>
</glyph>
<glyph name="parenright" format="2">
  <unicode hex="0029" />
  <advance width="358" />
  <outline>
    <contour>
      <point x="83" y="-141" type="qcurve" />
      <point x="59" y="-163" />
      <point x="51" y="-163" type="qcurve" />
      <point x="35" y="-163" />
      <point x="35" y="-143" type="qcurve" />
      <point x="35" y="-132" />
      <point x="43" y="-124" type="qcurve" />
      <point x="104" y="-63" />
      <point x="178" y="185" />
      <point x="178" y="412" />
      <point x="98" y="701" />
      <point x="32" y="779" type="qcurve" />
      <point x="27" y="784" />
      <point x="27" y="793" type="qcurve" />
      <point x="27" y="810" />
      <point x="46" y="810" type="qcurve" />
      <point x="57" y="810" />
      <point x="82" y="784" type="qcurve" />
      <point x="140" y="719" />
      <point x="193" y="598" type="qcurve" />
      <point x="255" y="446" />
      <point x="255" y="145" />
      <point x="141" y="-88" />
    </contour>
  </outline>
</glyph>
<glyph name="period" format="2">
  <unicode hex="002E" />
  <advance width="358" />
  <outline>
    <contour>
      <point x="205" y="113" />
      <point x="244" y="69" />
      <point x="244" y="19" />
      <point x="206" y="-14" />
      <point x="162" y="-14" />
      <point x="126" y="31" />
      <point x="126" y="80" />
      <point x="160" y="113" />
    </contour>
  </outline>
</glyph>
<glyph name="zero" format="2">
  <unicode hex="0030" />
  <advance width="614" />
  <outline>
    <contour>
      <point x="194" y="95" />
      <point x="255" y="46" />
      <point x="362" y="46" />
      <point x="398" y="90" type="qcurve" />
      <point x="467" y="173" />
      <point x="467" y="575" />
      <point x="389" y="641" type="qcurve" />
      <point x="359" y="666" />
      <point x="326" y="666" type="qcurve" />
      <point x="260" y="666" />
      <point x="148" y="493" />
      <point x="148" y="211" />
      <point x="177" y="137" type="qcurve" />
    </contour>
    <contour>
      <point x="131" y="625" />
      <point x="166" y="675" />
      <point x="188" y="675" />
      <point x="199" y="663" type="qcurve" />
      <point x="257" y="731" />
      <point x="394" y="730" />
      <point x="443" y="682" type="qcurve" />
      <point x="540" y="587" />
      <point x="541" y="362" type="qcurve" />
      <point x="541" y="203" />
      <point x="483" y="96" type="qcurve" />
      <point x="420" y="-19" />
      <point x="186" y="-18" />
      <point x="127" y="89" type="qcurve" />
      <point x="75" y="184" />
      <point x="75" y="473" />
      <point x="115" y="580" type="qcurve" />
    </contour>
  </outline>
</glyph>
<glyph name="one" format="2">
  <unicode hex="0031" />
  <advance width="614" />
  <outline>
    <contour>
      <point x="284" y="17" type="qcurve" />
      <point x="286" y="108" type="line" />
      <point x="286" y="621" type="line" />
      <point x="249" y="599" />
      <point x="188" y="586" type="qcurve" />
      <point x="186" y="585" />
      <point x="166" y="585" />
      <point x="136" y="601" />
      <point x="136" y="617" />
      <point x="147" y="622" type="qcurve" />
      <point x="245" y="661" />
      <point x="290" y="711" type="qcurve" />
      <point x="304" y="727" />
      <point x="329" y="727" />
      <point x="367" y="702" />
      <point x="367" y="675" />
      <point x="360" y="637" />
      <point x="360" y="614" type="qcurve" />
      <point x="360" y="114" type="line" />
      <point x="362" y="-1" type="line" />
      <point x="362" y="-11" />
      <point x="324" y="-11" />
      <point x="284" y="4" />
    </contour>
  </outline>
</glyph>
<glyph name="two" format="2">
  <unicode hex="0032" />
  <advance width="614" />
  <outline>
    <contour>
      <point x="377" y="7" type="qcurve" />
      <point x="251" y="7" type="line" />
      <point x="168" y="7" />
      <point x="105" y="-4" type="qcurve" />
      <point x="100" y="-4" type="line" />
      <point x="83" y="-4" />
      <point x="58" y="29" />
      <point x="58" y="53" />
      <point x="69" y="70" />
      <point x="81" y="83" />
      <point x="85" y="90" type="qcurve" />
      <point x="115" y="141" />
      <point x="242" y="284" />
      <point x="392" y="408" />
      <point x="461" y="510" />
      <point x="461" y="606" />
      <point x="399" y="665" />
      <point x="273" y="665" />
      <point x="193" y="609" />
      <point x="175" y="564" type="qcurve" />
      <point x="171" y="554" />
      <point x="152" y="538" />
      <point x="125" y="538" />
      <point x="100" y="573" />
      <point x="100" y="595" />
      <point x="129" y="642" />
      <point x="158" y="668" type="qcurve" />
      <point x="230" y="730" />
      <point x="430" y="730" />
      <point x="537" y="636" />
      <point x="537" y="495" />
      <point x="447" y="368" />
      <point x="371" y="304" type="qcurve" />
      <point x="219" y="181" />
      <point x="148" y="66" type="qcurve" />
      <point x="199" y="71" />
      <point x="301" y="71" type="qcurve" />
      <point x="451" y="70" type="line" />
      <point x="517" y="71" type="line" />
      <point x="530" y="71" />
      <point x="552" y="34" />
      <point x="552" y="-1" />
      <point x="537" y="-1" type="qcurve" />
      <point x="527" y="-1" />
      <point x="450" y="7" />
    </contour>
  </outline>
</glyph>
<glyph name="four" format="2">
  <unicode hex="0034" />
  <advance width="614" />
  <outline>
    <contour>
      <point x="572" y="163" type="qcurve" />
      <point x="477" y="165" type="line" />
      <point x="458" y="164" type="line" />
      <point x="458" y="105" type="line" />
      <point x="462" y="-1" type="line" />
      <point x="462" y="-11" />
      <point x="424" y="-11" />
      <point x="385" y="4" />
      <point x="385" y="17" type="qcurve" />
      <point x="387" y="108" type="line" />
      <point x="387" y="161" type="line" />
      <point x="144" y="148" type="line" />
      <point x="129" y="148" />
      <point x="104" y="141" />
      <point x="83" y="141" />
      <point x="52" y="171" />
      <point x="52" y="201" />
      <point x="69" y="224" />
      <point x="88" y="248" />
      <point x="95" y="258" type="qcurve" />
      <point x="286" y="560" />
      <point x="348" y="675" />
      <point x="368" y="721" type="qcurve" />
      <point x="371" y="728" />
      <point x="387" y="728" />
      <point x="399" y="719" type="qcurve" />
      <point x="430" y="696" />
      <point x="430" y="673" type="qcurve" />
      <point x="430" y="669" />
      <point x="427" y="664" type="qcurve" />
      <point x="390" y="606" type="line" />
      <point x="220" y="330" />
      <point x="138" y="211" type="qcurve" />
      <point x="387" y="222" type="line" />
      <point x="387" y="428" type="line" />
      <point x="384" y="538" type="line" />
      <point x="384" y="548" />
      <point x="422" y="548" />
      <point x="460" y="532" />
      <point x="460" y="519" type="qcurve" />
      <point x="458" y="428" type="line" />
      <point x="458" y="225" type="line" />
      <point x="476" y="226" type="line" />
      <point x="496" y="227" />
      <point x="541" y="232" />
      <point x="564" y="232" />
      <point x="584" y="195" />
      <point x="583" y="163" />
    </contour>
  </outline>
</glyph>
<glyph name="six" format="2">
  <unicode hex="0036" />
  <advance width="614" />
  <outline>
    <contour>
      <point x="137" y="133" />
      <point x="227" y="45" />
      <point x="393" y="45" />
      <point x="481" y="150" />
      <point x="481" y="229" type="qcurve" />
      <point x="481" y="271" />
      <point x="442" y="342" />
      <point x="373" y="385" />
      <point x="265" y="385" />
      <point x="181" y="335" />
      <point x="137" y="252" />
      <point x="137" y="202" type="qcurve" />
    </contour>
    <contour>
      <point x="177" y="391" type="qcurve" />
      <point x="239" y="446" />
      <point x="328" y="446" type="qcurve" />
      <point x="389" y="446" />
      <point x="493" y="391" />
      <point x="554" y="294" />
      <point x="554" y="166" />
      <point x="500" y="51" />
      <point x="391" y="-17" />
      <point x="234" y="-17" />
      <point x="125" y="41" />
      <point x="65" y="140" />
      <point x="65" y="267" />
      <point x="115" y="410" />
      <point x="216" y="583" />
      <point x="293" y="698" />
      <point x="299" y="714" />
      <point x="303" y="720" type="qcurve" />
      <point x="309" y="731" />
      <point x="357" y="731" />
      <point x="385" y="717" />
      <point x="385" y="694" />
      <point x="375" y="684" type="qcurve" />
      <point x="302" y="601" />
      <point x="200" y="436" />
    </contour>
  </outline>
</glyph>
<glyph name="seven" format="2">
  <unicode hex="0037" />
  <advance width="614" />
  <outline>
    <contour>
      <point x="543" y="673" type="qcurve" />
      <point x="539" y="659" />
      <point x="516" y="623" />
      <point x="492" y="573" type="qcurve" />
      <point x="320" y="224" />
      <point x="260" y="5" type="qcurve" />
      <point x="257" y="-11" />
      <point x="196" y="-11" />
      <point x="182" y="11" />
      <point x="182" y="35" />
      <point x="339" y="421" />
      <point x="453" y="650" type="qcurve" />
      <point x="161" y="625" type="line" />
      <point x="154" y="624" />
      <point x="138" y="621" />
      <point x="111" y="621" />
      <point x="88" y="648" />
      <point x="79" y="679" />
      <point x="79" y="681" type="qcurve" />
      <point x="79" y="690" />
      <point x="85" y="690" type="qcurve" />
      <point x="122" y="688" type="line" />
      <point x="451" y="712" type="line" />
      <point x="463" y="713" />
      <point x="484" y="719" />
      <point x="494" y="719" type="qcurve" />
      <point x="497" y="719" type="line" />
      <point x="510" y="718" />
      <point x="543" y="687" />
    </contour>
  </outline>
</glyph>
<glyph name="eight" format="2">
  <unicode hex="0038" />
  <advance width="614" />
  <outline>
    <contour>
      <point x="290" y="369" type="qcurve" />
      <point x="214" y="316" />
      <point x="131" y="231" />
      <point x="131" y="180" type="qcurve" />
      <point x="131" y="146" />
      <point x="147" y="116" type="qcurve" />
      <point x="184" y="47" />
      <point x="288" y="47" type="qcurve" />
      <point x="371" y="47" />
      <point x="468" y="118" />
      <point x="468" y="236" />
      <point x="427" y="299" />
      <point x="348" y="344" />
    </contour>
    <contour>
      <point x="284" y="438" type="qcurve" />
      <point x="377" y="497" />
      <point x="478" y="579" type="qcurve" />
      <point x="476" y="578" />
      <point x="456" y="578" />
      <point x="446" y="592" type="qcurve" />
      <point x="399" y="669" />
      <point x="310" y="669" type="qcurve" />
      <point x="244" y="669" />
      <point x="165" y="602" />
      <point x="165" y="519" />
      <point x="224" y="467" />
    </contour>
    <contour>
      <point x="501" y="597" type="qcurve" />
      <point x="518" y="614" />
      <point x="530" y="614" type="qcurve" />
      <point x="546" y="614" />
      <point x="547" y="598" type="qcurve" />
      <point x="547" y="568" />
      <point x="404" y="456" type="qcurve" />
      <point x="370" y="429" />
      <point x="345" y="411" type="qcurve" />
      <point x="440" y="375" />
      <point x="542" y="267" />
      <point x="542" y="92" />
      <point x="407" y="-17" />
      <point x="288" y="-17" type="qcurve" />
      <point x="218" y="-17" />
      <point x="115" y="34" />
      <point x="58" y="123" />
      <point x="58" y="177" type="qcurve" />
      <point x="58" y="289" />
      <point x="227" y="399" type="qcurve" />
      <point x="161" y="434" />
      <point x="93" y="508" />
      <point x="93" y="603" />
      <point x="146" y="681" />
      <point x="244" y="729" />
      <point x="357" y="729" />
      <point x="431" y="699" />
      <point x="480" y="656" />
      <point x="505" y="620" />
      <point x="505" y="605" />
    </contour>
  </outline>
</glyph>
<glyph name="colon" format="2">
  <unicode hex="003A" />
  <advance width="358" />
  <outline>
    <contour>
      <point x="202" y="103" />
      <point x="236" y="61" />
      <point x="236" y="19" />
      <point x="210" y="-7" />
      <point x="161" y="-7" />
      <point x="128" y="35" />
      <point x="128" y="79" />
      <point x="159" y="103" />
    </contour>
    <contour>
      <point x="202" y="483" />
      <point x="236" y="441" />
      <point x="236" y="399" />
      <point x="210" y="373" />
      <point x="161" y="373" />
      <point x="128" y="415" />
      <point x="128" y="459" />
      <point x="159" y="483" />
    </contour>
  </outline>
</glyph>
<glyph name="equal" format="2">
  <unicode hex="003D" />
  <advance width="614" />
  <outline>
    <contour>
      <point x="78" y="191" type="qcurve" />
      <point x="109" y="189" />
      <point x="162" y="189" type="qcurve" />
      <point x="456" y="189" type="line" />
      <point x="486" y="189" />
      <point x="528" y="193" type="qcurve" />
      <point x="529" y="193" type="line" />
      <point x="540" y="193" />
      <point x="553" y="166" />
      <point x="553" y="128" />
      <point x="538" y="128" type="qcurve" />
      <point x="455" y="130" type="line" />
      <point x="161" y="130" type="line" />
      <point x="102" y="130" />
      <point x="83" y="127" type="qcurve" />
      <point x="82" y="127" type="line" />
      <point x="73" y="127" />
      <point x="61" y="154" />
      <point x="61" y="167" type="qcurve" />
      <point x="62" y="191" />
    </contour>
    <contour>
      <point x="78" y="384" type="qcurve" />
      <point x="109" y="382" />
      <point x="162" y="382" type="qcurve" />
      <point x="456" y="382" type="line" />
      <point x="486" y="382" />
      <point x="528" y="385" type="qcurve" />
      <point x="529" y="385" type="line" />
      <point x="540" y="385" />
      <point x="553" y="358" />
      <point x="553" y="321" />
      <point x="538" y="321" type="qcurve" />
      <point x="455" y="323" type="line" />
      <point x="161" y="323" type="line" />
      <point x="102" y="323" />
      <point x="83" y="319" type="qcurve" />
      <point x="82" y="319" type="line" />
      <point x="73" y="319" />
      <point x="61" y="346" />
      <point x="61" y="359" type="qcurve" />
      <point x="62" y="384" />
    </contour>
  </outline>
</glyph>
<glyph name="at" format="2">
  <unicode hex="0040" />
  <advance width="802" />
  <outline>
    <contour>
      <point x="279" y="309" type="qcurve" />
      <point x="279" y="218" />
      <point x="340" y="218" type="qcurve" />
      <point x="410" y="218" />
      <point x="461" y="291" type="qcurve" />
      <point x="510" y="359" />
      <point x="510" y="436" type="qcurve" />
      <point x="510" y="474" />
      <point x="469" y="515" />
      <point x="397" y="515" />
      <point x="325" y="459" />
      <point x="279" y="365" />
    </contour>
    <contour>
      <point x="609" y="524" type="qcurve" />
      <point x="608" y="520" type="line" />
      <point x="566" y="395" />
      <point x="566" y="258" type="qcurve" />
      <point x="566" y="210" />
      <point x="587" y="210" type="qcurve" />
      <point x="614" y="210" />
      <point x="667" y="263" />
      <point x="703" y="364" />
      <point x="703" y="512" />
      <point x="632" y="618" />
      <point x="508" y="673" />
      <point x="365" y="673" />
      <point x="247" y="614" />
      <point x="157" y="515" />
      <point x="104" y="389" />
      <point x="104" y="321" type="qcurve" />
      <point x="104" y="181" />
      <point x="266" y="43" />
      <point x="522" y="43" />
      <point x="638" y="117" type="qcurve" />
      <point x="691" y="151" />
      <point x="726" y="190" type="qcurve" />
      <point x="738" y="203" />
      <point x="748" y="204" type="qcurve" />
      <point x="762" y="204" />
      <point x="762" y="187" type="qcurve" />
      <point x="762" y="180" />
      <point x="757" y="170" type="qcurve" />
      <point x="722" y="116" />
      <point x="666" y="74" type="qcurve" />
      <point x="547" y="-17" />
      <point x="402" y="-17" type="qcurve" />
      <point x="291" y="-17" />
      <point x="128" y="61" />
      <point x="37" y="210" />
      <point x="37" y="395" />
      <point x="96" y="545" />
      <point x="202" y="662" />
      <point x="346" y="729" />
      <point x="530" y="729" />
      <point x="682" y="657" />
      <point x="767" y="525" />
      <point x="767" y="353" />
      <point x="715" y="224" />
      <point x="632" y="152" />
      <point x="585" y="152" type="qcurve" />
      <point x="504" y="152" />
      <point x="504" y="242" type="qcurve" />
      <point x="504" y="252" type="line" />
      <point x="504" y="256" />
      <point x="505" y="261" type="qcurve" />
      <point x="437" y="152" />
      <point x="340" y="153" type="qcurve" />
      <point x="279" y="153" />
      <point x="205" y="233" />
      <point x="205" y="377" />
      <point x="266" y="499" />
      <point x="370" y="573" />
      <point x="499" y="573" />
      <point x="530" y="527" type="qcurve" />
      <point x="532" y="545" />
      <point x="532" y="563" />
      <point x="557" y="563" />
      <point x="587" y="552" />
      <point x="609" y="533" />
    </contour>
  </outline>
</glyph>
<glyph name="F" format="2">
  <unicode hex="0046" />
  <advance width="595" />
  <outline>
    <contour>
      <point x="104" y="701" type="line" />
      <point x="104" y="715" />
      <point x="133" y="716" />
      <point x="172" y="703" />
      <point x="173" y="702" type="qcurve" />
      <point x="451" y="721" type="line" />
      <point x="475" y="723" />
      <point x="526" y="729" />
      <point x="550" y="729" />
      <point x="570" y="693" />
      <point x="570" y="660" />
      <point x="557" y="660" type="qcurve" />
      <point x="494" y="660" type="line" />
      <point x="466" y="660" />
      <point x="452" y="659" type="qcurve" />
      <point x="180" y="641" type="line" />
      <point x="180" y="413" type="line" />
      <point x="394" y="426" type="line" />
      <point x="418" y="428" />
      <point x="470" y="434" />
      <point x="494" y="434" />
      <point x="514" y="398" />
      <point x="514" y="366" />
      <point x="501" y="366" type="qcurve" />
      <point x="436" y="366" type="line" />
      <point x="409" y="366" />
      <point x="395" y="365" type="qcurve" />
      <point x="180" y="352" type="line" />
      <point x="180" y="110" type="line" />
      <point x="183" y="1" type="line" />
      <point x="183" y="-9" />
      <point x="145" y="-9" />
      <point x="106" y="6" />
      <point x="106" y="19" type="qcurve" />
      <point x="109" y="111" type="line" />
      <point x="109" y="352" type="line" />
      <point x="98" y="358" />
      <point x="81" y="391" />
      <point x="81" y="414" />
      <point x="89" y="414" type="qcurve" />
      <point x="91" y="414" type="line" />
      <point x="99" y="412" />
      <point x="109" y="412" type="qcurve" />
      <point x="109" y="649" type="line" />
    </contour>
  </outline>
</glyph>
<glyph name="K" format="2">
  <unicode hex="004B" />
  <advance width="645" />
  <outline>
    <contour>
      <point x="106" y="17" type="qcurve" />
      <point x="109" y="115" type="line" />
      <point x="109" y="603" type="line" />
      <point x="105" y="712" type="line" />
      <point x="105" y="722" />
      <point x="144" y="722" />
      <point x="182" y="707" />
      <point x="182" y="693" type="qcurve" />
      <point x="180" y="602" type="line" />
      <point x="180" y="422" type="line" />
      <point x="296" y="512" />
      <point x="490" y="697" />
      <point x="510" y="721" />
      <point x="541" y="721" />
      <point x="584" y="697" />
      <point x="584" y="686" type="qcurve" />
      <point x="584" y="681" />
      <point x="564" y="665" />
      <point x="523" y="632" />
      <point x="393" y="513" />
      <point x="262" y="408" type="qcurve" />
      <point x="263" y="408" />
      <point x="299" y="367" />
      <point x="330" y="333" type="qcurve" />
      <point x="521" y="122" />
      <point x="633" y="28" type="qcurve" />
      <point x="637" y="25" />
      <point x="637" y="20" type="qcurve" />
      <point x="637" y="10" />
      <point x="596" y="-9" />
      <point x="549" y="-9" />
      <point x="542" y="2" type="qcurve" />
      <point x="525" y="26" />
      <point x="501" y="50" type="qcurve" />
      <point x="315" y="245" />
      <point x="211" y="366" type="qcurve" />
      <point x="180" y="341" type="line" />
      <point x="180" y="114" type="line" />
      <point x="183" y="-1" type="line" />
      <point x="183" y="-11" />
      <point x="145" y="-11" />
      <point x="106" y="4" />
    </contour>
  </outline>
</glyph>
<glyph name="M" format="2">
  <unicode hex="004D" />
  <advance width="875" />
  <outline>
    <contour>
      <point x="754" y="693" type="qcurve" />
      <point x="749" y="650" type="line" />
      <point x="749" y="643" type="line" />
      <point x="776" y="389" />
      <point x="815" y="102" type="qcurve" />
      <point x="820" y="61" />
      <point x="835" y="19" type="qcurve" />
      <point x="836" y="15" type="line" />
      <point x="836" y="5" />
      <point x="803" y="-6" />
      <point x="787" y="-6" type="qcurve" />
      <point x="750" y="-6" />
      <point x="749" y="11" type="qcurve" />
      <point x="747" y="62" />
      <point x="724" y="263" />
      <point x="709" y="411" />
      <point x="693" y="556" />
      <point x="687" y="618" type="qcurve" />
      <point x="546" y="327" />
      <point x="483" y="165" type="qcurve" />
      <point x="471" y="133" />
      <point x="470" y="114" />
      <point x="435" y="97" />
      <point x="421" y="97" type="qcurve" />
      <point x="390" y="97" />
      <point x="386" y="113" type="qcurve" />
      <point x="373" y="157" />
      <point x="343" y="221" />
      <point x="216" y="537" />
      <point x="189" y="608" type="qcurve" />
      <point x="170" y="382" />
      <point x="131" y="68" />
      <point x="129" y="33" />
      <point x="127" y="12" type="qcurve" />
      <point x="126" y="3" />
      <point x="96" y="-7" />
      <point x="79" y="-7" type="qcurve" />
      <point x="43" y="-7" />
      <point x="43" y="8" type="qcurve" />
      <point x="43" y="10" type="line" />
      <point x="63" y="76" />
      <point x="114" y="496" />
      <point x="123" y="595" />
      <point x="129" y="653" />
      <point x="129" y="654" type="qcurve" />
      <point x="128" y="679" type="line" />
      <point x="128" y="684" type="line" />
      <point x="128" y="700" />
      <point x="170" y="720" />
      <point x="204" y="720" />
      <point x="216" y="710" />
      <point x="233" y="666" type="qcurve" />
      <point x="359" y="337" />
      <point x="426" y="190" type="qcurve" />
      <point x="538" y="461" />
      <point x="646" y="689" type="qcurve" />
      <point x="653" y="703" />
      <point x="666" y="729" />
      <point x="694" y="729" />
      <point x="711" y="723" type="qcurve" />
      <point x="754" y="708" />
    </contour>
  </outline>
</glyph>
<glyph name="R" format="2">
  <unicode hex="0052" />
  <advance width="650" />
  <outline>
    <contour>
      <point x="178" y="379" type="line" />
      <point x="192" y="397" />
      <point x="206" y="397" type="qcurve" />
      <point x="226" y="397" type="line" />
      <point x="351" y="397" />
      <point x="416" y="436" type="qcurve" />
      <point x="452" y="459" />
      <point x="496" y="519" />
      <point x="496" y="550" type="qcurve" />
      <point x="496" y="601" />
      <point x="410" y="665" />
      <point x="234" y="665" />
      <point x="178" y="645" type="qcurve" />
    </contour>
    <contour>
      <point x="106" y="17" type="qcurve" />
      <point x="109" y="119" type="line" />
      <point x="109" y="631" type="line" />
      <point x="108" y="631" type="line" />
      <point x="88" y="631" />
      <point x="68" y="664" type="qcurve" />
      <point x="61" y="676" />
      <point x="60" y="693" />
      <point x="69" y="694" type="qcurve" />
      <point x="89" y="698" />
      <point x="142" y="705" />
      <point x="240" y="726" />
      <point x="421" y="726" />
      <point x="521" y="675" />
      <point x="567" y="596" />
      <point x="567" y="499" />
      <point x="509" y="417" />
      <point x="403" y="357" />
      <point x="286" y="347" />
      <point x="279" y="347" type="qcurve" />
      <point x="311" y="315" />
      <point x="354" y="266" type="qcurve" />
      <point x="550" y="47" />
      <point x="611" y="26" type="qcurve" />
      <point x="655" y="8" />
      <point x="655" y="-4" type="qcurve" />
      <point x="655" y="-13" />
      <point x="627" y="-13" type="qcurve" />
      <point x="551" y="-13" />
      <point x="444" y="72" />
      <point x="355" y="172" type="qcurve" />
      <point x="286" y="251" type="line" />
      <point x="231" y="312" />
      <point x="188" y="339" />
      <point x="178" y="343" type="qcurve" />
      <point x="178" y="118" type="line" />
      <point x="181" y="-1" type="line" />
      <point x="181" y="-11" />
      <point x="144" y="-11" />
      <point x="106" y="4" />
    </contour>
  </outline>
</glyph>
<glyph name="W" format="2">
  <unicode hex="0057" />
  <advance width="901" />
  <outline>
    <contour>
      <point x="9" y="706" type="qcurve" />
      <point x="9" y="722" />
      <point x="90" y="722" />
      <point x="94" y="701" type="qcurve" />
      <point x="109" y="647" type="line" />
      <point x="175" y="425" />
      <point x="242" y="102" type="qcurve" />
      <point x="278" y="250" />
      <point x="355" y="515" />
      <point x="397" y="659" />
      <point x="399" y="686" type="qcurve" />
      <point x="399" y="706" />
      <point x="437" y="707" type="qcurve" />
      <point x="455" y="707" />
      <point x="492" y="694" />
      <point x="493" y="683" type="qcurve" />
      <point x="495" y="670" />
      <point x="516" y="599" />
      <point x="605" y="261" />
      <point x="640" y="101" type="qcurve" />
      <point x="724" y="406" />
      <point x="799" y="651" />
      <point x="815" y="718" type="qcurve" />
      <point x="818" y="728" />
      <point x="846" y="728" />
      <point x="860" y="723" type="qcurve" />
      <point x="895" y="709" />
      <point x="895" y="689" type="qcurve" />
      <point x="895" y="686" />
      <point x="889" y="672" type="qcurve" />
      <point x="839" y="554" />
      <point x="699" y="81" type="qcurve" />
      <point x="695" y="65" />
      <point x="687" y="27" />
      <point x="682" y="7" type="qcurve" />
      <point x="676" y="-19" />
      <point x="634" y="-18" />
      <point x="595" y="14" />
      <point x="587" y="47" type="qcurve" />
      <point x="508" y="387" />
      <point x="450" y="595" type="qcurve" />
      <point x="415" y="483" />
      <point x="326" y="163" />
      <point x="298" y="65" />
      <point x="290" y="29" />
      <point x="274" y="-17" />
      <point x="237" y="-17" />
      <point x="200" y="15" />
      <point x="191" y="47" type="qcurve" />
      <point x="63" y="575" />
      <point x="10" y="700" type="qcurve" />
      <point x="9" y="703" />
    </contour>
  </outline>
</glyph>
<glyph name="bracketleft" format="2">
  <unicode hex="005B" />
  <advance width="358" />
  <outline>
    <contour>
      <point x="231" y="-151" type="line" />
      <point x="215" y="-151" />
      <point x="195" y="-155" type="qcurve" />
      <point x="182" y="-155" />
      <point x="159" y="-128" />
      <point x="159" y="-117" type="qcurve" />
      <point x="162" y="-52" type="line" />
      <point x="162" y="694" type="line" />
      <point x="157" y="755" type="line" />
      <point x="157" y="769" />
      <point x="174" y="782" />
      <point x="201" y="782" type="qcurve" />
      <point x="307" y="784" type="line" />
      <point x="308" y="784" type="line" />
      <point x="321" y="784" />
      <point x="338" y="759" />
      <point x="338" y="728" />
      <point x="323" y="728" type="qcurve" />
      <point x="224" y="728" type="line" />
      <point x="224" y="-97" type="line" />
      <point x="301" y="-94" />
      <point x="318" y="-94" />
      <point x="335" y="-121" />
      <point x="335" y="-151" />
      <point x="321" y="-151" type="qcurve" />
    </contour>
  </outline>
</glyph>
<glyph name="backslash" format="2">
  <unicode hex="005C" />
  <advance width="358" />
  <outline>
    <contour>
      <point x="39" y="655" type="line" />
      <point x="27" y="686" />
      <point x="9" y="723" />
      <point x="9" y="734" />
      <point x="25" y="754" />
      <point x="47" y="769" />
      <point x="66" y="769" />
      <point x="78" y="720" />
      <point x="93" y="676" type="qcurve" />
      <point x="312" y="72" type="line" />
      <point x="322" y="43" />
      <point x="344" y="3" />
      <point x="344" y="-19" />
      <point x="317" y="-43" />
      <point x="291" y="-43" />
      <point x="286" y="-27" type="qcurve" />
      <point x="278" y="1" />
      <point x="260" y="48" type="qcurve" />
    </contour>
  </outline>
</glyph>
<glyph name="bracketright" format="2">
  <unicode hex="005D" />
  <advance width="358" />
  <outline>
    <contour>
      <point x="127" y="781" type="line" />
      <point x="143" y="781" />
      <point x="164" y="785" type="qcurve" />
      <point x="178" y="785" />
      <point x="200" y="759" />
      <point x="200" y="748" type="qcurve" />
      <point x="197" y="683" type="line" />
      <point x="197" y="-63" type="line" />
      <point x="202" y="-124" type="line" />
      <point x="202" y="-137" />
      <point x="184" y="-152" />
      <point x="158" y="-152" type="qcurve" />
      <point x="77" y="-153" type="line" />
      <point x="59" y="-153" />
      <point x="51" y="-154" type="qcurve" />
      <point x="50" y="-154" type="line" />
      <point x="37" y="-154" />
      <point x="20" y="-128" />
      <point x="20" y="-97" />
      <point x="36" y="-97" type="qcurve" />
      <point x="134" y="-97" type="line" />
      <point x="134" y="728" type="line" />
      <point x="57" y="725" />
      <point x="40" y="725" />
      <point x="24" y="752" />
      <point x="24" y="781" />
      <point x="38" y="781" type="qcurve" />
    </contour>
  </outline>
</glyph>
<glyph name="asciicircum" format="2">
  <unicode hex="005E" />
  <advance width="614" />
  <outline>
    <contour>
      <point x="543" y="298" type="qcurve" />
      <point x="543" y="281" />
      <point x="496" y="281" type="qcurve" />
      <point x="474" y="281" />
      <point x="470" y="293" type="qcurve" />
      <point x="458" y="336" />
      <point x="449" y="354" type="qcurve" />
      <point x="310" y="645" type="line" />
      <point x="172" y="354" type="line" />
      <point x="158" y="322" />
      <point x="146" y="287" type="qcurve" />
      <point x="143" y="279" />
      <point x="113" y="279" />
      <point x="79" y="294" />
      <point x="79" y="304" type="qcurve" />
      <point x="79" y="307" />
      <point x="84" y="317" type="qcurve" />
      <point x="107" y="354" />
      <point x="113" y="371" type="qcurve" />
      <point x="266" y="689" type="line" />
      <point x="272" y="702" />
      <point x="276" y="729" />
      <point x="306" y="733" type="qcurve" />
      <point x="309" y="734" />
      <point x="330" y="734" />
      <point x="341" y="714" />
      <point x="347" y="702" type="qcurve" />
      <point x="509" y="368" type="line" />
      <point x="522" y="339" />
      <point x="543" y="300" />
    </contour>
  </outline>
</glyph>
<glyph name="b" format="2">
  <unicode hex="0062" />
  <advance width="586" />
  <outline>
    <contour>
      <point x="160" y="103" type="qcurve" />
      <point x="164" y="105" />
      <point x="167" y="105" type="qcurve" />
      <point x="178" y="105" />
      <point x="194" y="83" type="qcurve" />
      <point x="222" y="42" />
      <point x="342" y="42" />
      <point x="460" y="173" />
      <point x="460" y="383" />
      <point x="406" y="420" type="qcurve" />
      <point x="381" y="436" />
      <point x="311" y="436" />
      <point x="234" y="391" />
      <point x="169" y="296" />
      <point x="163" y="214" type="qcurve" />
      <point x="160" y="171" />
    </contour>
    <contour>
      <point x="166" y="697" type="qcurve" />
      <point x="162" y="606" type="line" />
      <point x="162" y="378" type="line" />
      <point x="203" y="448" />
      <point x="298" y="498" />
      <point x="354" y="498" type="qcurve" />
      <point x="431" y="498" />
      <point x="529" y="389" />
      <point x="529" y="199" />
      <point x="462" y="61" />
      <point x="348" y="-17" />
      <point x="279" y="-17" type="qcurve" />
      <point x="239" y="-17" />
      <point x="176" y="17" />
      <point x="159" y="45" type="qcurve" />
      <point x="156" y="27" type="line" />
      <point x="154" y="17" />
      <point x="123" y="-5" />
      <point x="110" y="-5" type="qcurve" />
      <point x="93" y="-5" />
      <point x="92" y="15" type="qcurve" />
      <point x="94" y="109" type="line" />
      <point x="94" y="607" type="line" />
      <point x="91" y="716" type="line" />
      <point x="91" y="726" />
      <point x="128" y="726" />
      <point x="166" y="710" />
    </contour>
  </outline>
</glyph>
<glyph name="d" format="2">
  <unicode hex="0064" />
  <advance width="588" />
  <outline>
    <contour>
      <point x="427" y="390" type="line" />
      <point x="423" y="386" />
      <point x="412" y="386" />
      <point x="408" y="391" type="qcurve" />
      <point x="374" y="438" />
      <point x="307" y="438" type="qcurve" />
      <point x="275" y="438" />
      <point x="208" y="396" />
      <point x="182" y="360" type="qcurve" />
      <point x="127" y="282" />
      <point x="127" y="119" />
      <point x="181" y="43" />
      <point x="219" y="43" type="qcurve" />
      <point x="293" y="43" />
      <point x="427" y="188" />
      <point x="427" y="283" type="qcurve" />
    </contour>
    <contour>
      <point x="497" y="697" type="qcurve" />
      <point x="495" y="606" type="line" />
      <point x="495" y="189" type="line" />
      <point x="495" y="145" />
      <point x="513" y="60" />
      <point x="529" y="40" type="qcurve" />
      <point x="531" y="36" />
      <point x="531" y="20" />
      <point x="503" y="-12" />
      <point x="488" y="-12" type="qcurve" />
      <point x="463" y="-12" />
      <point x="430" y="93" />
      <point x="430" y="121" type="qcurve" />
      <point x="386" y="47" />
      <point x="286" y="-18" />
      <point x="151" y="-18" />
      <point x="57" y="90" />
      <point x="57" y="190" type="qcurve" />
      <point x="57" y="311" />
      <point x="213" y="498" />
      <point x="312" y="498" type="qcurve" />
      <point x="351" y="498" />
      <point x="411" y="468" />
      <point x="427" y="444" type="qcurve" />
      <point x="427" y="607" type="line" />
      <point x="423" y="716" type="line" />
      <point x="423" y="726" />
      <point x="460" y="726" />
      <point x="497" y="710" />
    </contour>
  </outline>
</glyph>
<glyph name="i" format="2">
  <unicode hex="0069" />
  <advance width="269" />
  <outline>
    <contour>
      <point x="97" y="17" type="qcurve" />
      <point x="99" y="108" type="line" />
      <point x="99" y="377" type="line" />
      <point x="96" y="486" type="line" />
      <point x="96" y="495" />
      <point x="133" y="496" />
      <point x="172" y="480" />
      <point x="172" y="468" type="qcurve" />
      <point x="170" y="377" type="line" />
      <point x="170" y="108" type="line" />
      <point x="173" y="-1" type="line" />
      <point x="173" y="-10" />
      <point x="137" y="-10" />
      <point x="97" y="5" />
    </contour>
    <contour>
      <point x="153" y="715" />
      <point x="184" y="674" />
      <point x="184" y="632" />
      <point x="158" y="604" />
      <point x="115" y="604" />
      <point x="83" y="644" />
      <point x="83" y="686" />
      <point x="109" y="715" />
    </contour>
  </outline>
</glyph>
<glyph name="j" format="2">
  <unicode hex="006A" />
  <advance width="308" />
  <outline>
    <contour>
      <point x="214" y="468" type="qcurve" />
      <point x="212" y="373" type="line" />
      <point x="212" y="-31" type="line" />
      <point x="212" y="-108" />
      <point x="172" y="-144" type="qcurve" />
      <point x="149" y="-166" />
      <point x="59" y="-166" />
      <point x="1" y="-134" />
      <point x="1" y="-100" />
      <point x="22" y="-68" />
      <point x="44" y="-68" />
      <point x="55" y="-81" type="qcurve" />
      <point x="71" y="-103" />
      <point x="106" y="-102" type="qcurve" />
      <point x="123" y="-102" />
      <point x="142" y="-63" />
      <point x="142" y="-32" type="qcurve" />
      <point x="142" y="373" type="line" />
      <point x="139" y="486" type="line" />
      <point x="139" y="496" />
      <point x="176" y="497" />
      <point x="214" y="481" />
    </contour>
    <contour>
      <point x="197" y="715" />
      <point x="228" y="674" />
      <point x="228" y="632" />
      <point x="202" y="604" />
      <point x="159" y="604" />
      <point x="127" y="644" />
      <point x="127" y="686" />
      <point x="153" y="715" />
    </contour>
  </outline>
</glyph>
<glyph name="k" format="2">
  <unicode hex="006B" />
  <advance width="522" />
  <outline>
    <contour>
      <point x="92" y="18" type="qcurve" />
      <point x="94" y="109" type="line" />
      <point x="94" y="604" type="line" />
      <point x="91" y="714" type="line" />
      <point x="91" y="724" />
      <point x="128" y="724" />
      <point x="166" y="709" />
      <point x="166" y="695" type="qcurve" />
      <point x="162" y="604" type="line" />
      <point x="162" y="322" type="line" />
      <point x="354" y="455" type="line" />
      <point x="370" y="466" />
      <point x="395" y="490" type="qcurve" />
      <point x="399" y="495" />
      <point x="424" y="496" />
      <point x="438" y="490" type="qcurve" />
      <point x="473" y="478" />
      <point x="473" y="463" type="qcurve" />
      <point x="473" y="457" />
      <point x="406" y="418" />
      <point x="392" y="409" type="qcurve" />
      <point x="237" y="300" type="line" />
      <point x="267" y="271" />
      <point x="345" y="187" />
      <point x="427" y="103" />
      <point x="459" y="71" type="qcurve" />
      <point x="490" y="43" />
      <point x="517" y="31" type="qcurve" />
      <point x="522" y="29" />
      <point x="522" y="16" />
      <point x="512" y="8" type="qcurve" />
      <point x="487" y="-15" />
      <point x="465" y="-14" type="qcurve" />
      <point x="458" y="-14" />
      <point x="450" y="-8" type="qcurve" />
      <point x="404" y="30" />
      <point x="237" y="214" />
      <point x="186" y="264" type="qcurve" />
      <point x="162" y="249" type="line" />
      <point x="162" y="109" type="line" />
      <point x="167" y="0" type="line" />
      <point x="167" y="-10" />
      <point x="130" y="-10" />
      <point x="92" y="5" />
    </contour>
  </outline>
</glyph>
<glyph name="l" format="2">
  <unicode hex="006C" />
  <advance width="269" />
  <outline>
    <contour>
      <point x="175" y="45" type="qcurve" />
      <point x="179" y="41" />
      <point x="187" y="41" type="qcurve" />
      <point x="189" y="41" type="line" />
      <point x="211" y="42" />
      <point x="238" y="70" type="qcurve" />
      <point x="250" y="81" />
      <point x="269" y="81" />
      <point x="269" y="48" />
      <point x="242" y="13" type="qcurve" />
      <point x="211" y="-22" />
      <point x="180" y="-22" type="qcurve" />
      <point x="170" y="-22" type="line" />
      <point x="135" y="-18" />
      <point x="118" y="5" type="qcurve" />
      <point x="101" y="30" />
      <point x="99" y="77" type="qcurve" />
      <point x="99" y="604" type="line" />
      <point x="96" y="714" type="line" />
      <point x="96" y="724" />
      <point x="134" y="724" />
      <point x="172" y="709" />
      <point x="172" y="695" type="qcurve" />
      <point x="170" y="604" type="line" />
      <point x="170" y="80" type="line" />
      <point x="170" y="52" />
    </contour>
  </outline>
</glyph>
<glyph name="q" format="2">
  <unicode hex="0071" />
  <advance width="589" />
  <outline>
    <contour>
      <point x="426" y="390" type="line" />
      <point x="422" y="386" />
      <point x="411" y="386" />
      <point x="407" y="391" type="qcurve" />
      <point x="373" y="438" />
      <point x="307" y="438" type="qcurve" />
      <point x="274" y="438" />
      <point x="207" y="396" />
      <point x="181" y="360" type="qcurve" />
      <point x="126" y="282" />
      <point x="126" y="119" />
      <point x="180" y="43" />
      <point x="218" y="43" type="qcurve" />
      <point x="292" y="43" />
      <point x="426" y="188" />
      <point x="426" y="283" type="qcurve" />
    </contour>
    <contour>
      <point x="429" y="115" type="line" />
      <point x="355" y="-18" />
      <point x="217" y="-18" type="qcurve" />
      <point x="149" y="-18" />
      <point x="56" y="90" />
      <point x="56" y="190" type="qcurve" />
      <point x="56" y="311" />
      <point x="212" y="498" />
      <point x="311" y="498" type="qcurve" />
      <point x="350" y="498" />
      <point x="412" y="468" />
      <point x="428" y="444" type="qcurve" />
      <point x="428" y="450" type="line" />
      <point x="424" y="486" type="line" />
      <point x="424" y="496" />
      <point x="461" y="497" />
      <point x="498" y="481" />
      <point x="498" y="468" type="qcurve" />
      <point x="496" y="377" type="line" />
      <point x="496" y="-61" type="line" />
      <point x="499" y="-170" type="line" />
      <point x="499" y="-180" />
      <point x="462" y="-180" />
      <point x="424" y="-165" />
      <point x="424" y="-152" type="qcurve" />
      <point x="428" y="-60" type="line" />
    </contour>
  </outline>
</glyph>
<glyph name="t" format="2">
  <unicode hex="0074" />
  <advance width="368" />
  <outline>
    <contour>
      <point x="187" y="632" type="qcurve" />
      <point x="185" y="541" type="line" />
      <point x="185" y="492" type="line" />
      <point x="214" y="493" type="line" />
      <point x="251" y="495" />
      <point x="292" y="499" type="qcurve" />
      <point x="293" y="499" type="line" />
      <point x="306" y="499" />
      <point x="326" y="468" />
      <point x="326" y="439" />
      <point x="314" y="439" type="qcurve" />
      <point x="274" y="439" type="line" />
      <point x="245" y="439" />
      <point x="225" y="438" type="qcurve" />
      <point x="185" y="437" type="line" />
      <point x="185" y="111" type="line" />
      <point x="185" y="70" />
      <point x="200" y="47" />
      <point x="219" y="47" type="qcurve" />
      <point x="262" y="47" />
      <point x="317" y="89" type="qcurve" />
      <point x="334" y="102" />
      <point x="355" y="102" />
      <point x="355" y="92" type="qcurve" />
      <point x="355" y="70" />
      <point x="309" y="27" type="qcurve" />
      <point x="258" y="-18" />
      <point x="160" y="-18" />
      <point x="116" y="47" />
      <point x="116" y="113" type="qcurve" />
      <point x="116" y="434" type="line" />
      <point x="111" y="434" type="line" />
      <point x="110" y="434" />
      <point x="48" y="430" type="qcurve" />
      <point x="47" y="430" type="line" />
      <point x="34" y="430" />
      <point x="15" y="461" />
      <point x="15" y="488" />
      <point x="27" y="488" type="qcurve" />
      <point x="116" y="488" type="line" />
      <point x="116" y="541" type="line" />
      <point x="114" y="650" type="line" />
      <point x="114" y="660" />
      <point x="151" y="660" />
      <point x="187" y="645" />
    </contour>
  </outline>
</glyph>
<glyph name="w" format="2">
  <unicode hex="0077" />
  <advance width="747" />
  <outline>
    <contour>
      <point x="26" y="473" type="qcurve" />
      <point x="26" y="489" />
      <point x="61" y="489" type="qcurve" />
      <point x="76" y="489" />
      <point x="106" y="479" />
      <point x="108" y="468" type="qcurve" />
      <point x="110" y="458" />
      <point x="114" y="429" />
      <point x="117" y="418" type="qcurve" />
      <point x="205" y="86" type="line" />
      <point x="315" y="403" type="line" />
      <point x="320" y="418" />
      <point x="324" y="451" />
      <point x="326" y="462" type="qcurve" />
      <point x="328" y="479" />
      <point x="373" y="479" />
      <point x="415" y="465" />
      <point x="418" y="444" />
      <point x="420" y="423" />
      <point x="423" y="413" type="qcurve" />
      <point x="520" y="86" type="line" />
      <point x="630" y="416" type="line" />
      <point x="635" y="430" />
      <point x="643" y="467" />
      <point x="647" y="485" type="qcurve" />
      <point x="650" y="496" />
      <point x="687" y="497" />
      <point x="722" y="481" />
      <point x="722" y="470" type="qcurve" />
      <point x="722" y="467" />
      <point x="711" y="442" />
      <point x="693" y="396" type="qcurve" />
      <point x="578" y="67" type="line" />
      <point x="574" y="55" />
      <point x="564" y="23" />
      <point x="559" y="7" type="qcurve" />
      <point x="552" y="-19" />
      <point x="527" y="-18" type="qcurve" />
      <point x="514" y="-18" />
      <point x="486" y="-6" />
      <point x="472" y="9" />
      <point x="468" y="34" />
      <point x="464" y="47" type="qcurve" />
      <point x="371" y="376" type="line" />
      <point x="265" y="67" type="line" />
      <point x="259" y="50" />
      <point x="252" y="22" />
      <point x="240" y="-18" />
      <point x="189" y="-18" />
      <point x="171" y="2" type="qcurve" />
      <point x="164" y="9" />
      <point x="160" y="28" />
      <point x="154" y="47" type="qcurve" />
      <point x="49" y="409" type="line" />
      <point x="39" y="436" type="line" />
      <point x="33" y="453" />
      <point x="26" y="470" />
    </contour>
  </outline>
</glyph>
<glyph name="bar" format="2">
  <unicode hex="007C" />
  <advance width="358" />
  <outline>
    <contour>
      <point x="143" y="-17" type="line" />
      <point x="143" y="735" type="line" />
      <point x="214" y="735" type="line" />
      <point x="214" y="-17" type="line" />
    </contour>
  </outline>
</glyph>
<glyph name="asciitilde" format="2">
  <unicode hex="007E" />
  <advance width="614" />
  <outline>
    <contour>
      <point x="559" y="308" type="qcurve" />
      <point x="559" y="305" />
      <point x="544" y="267" />
      <point x="526" y="244" type="qcurve" />
      <point x="483" y="184" />
      <point x="411" y="183" type="qcurve" />
      <point x="383" y="183" />
      <point x="333" y="207" />
      <point x="308" y="222" type="qcurve" />
      <point x="246" y="261" />
      <point x="170" y="261" />
      <point x="105" y="226" />
      <point x="89" y="197" type="qcurve" />
      <point x="82" y="184" />
      <point x="74" y="183" type="qcurve" />
      <point x="56" y="183" />
      <point x="55" y="201" type="qcurve" />
      <point x="55" y="204" />
      <point x="71" y="243" />
      <point x="88" y="266" type="qcurve" />
      <point x="132" y="325" />
      <point x="265" y="326" />
      <point x="328" y="287" type="qcurve" />
      <point x="353" y="272" />
      <point x="394" y="248" />
      <point x="450" y="248" />
      <point x="512" y="290" />
      <point x="525" y="313" type="qcurve" />
      <point x="533" y="325" />
      <point x="544" y="326" type="qcurve" />
      <point x="559" y="325" />
    </contour>
  </outline>
</glyph>
<glyph name="exclamdown" format="2">
  <unicode hex="00A1" />
  <advance width="358" />
  <outline>
    <contour>
      <point x="215" y="-115" type="line" />
      <point x="215" y="-165" />
      <point x="220" y="-196" type="qcurve" />
      <point x="220" y="-198" type="line" />
      <point x="220" y="-215" />
      <point x="175" y="-215" />
      <point x="133" y="-197" />
      <point x="133" y="-183" type="qcurve" />
      <point x="133" y="-182" type="line" />
      <point x="137" y="-146" />
      <point x="139" y="-110" type="qcurve" />
      <point x="152" y="286" type="line" />
      <point x="152" y="337" type="line" />
      <point x="152" y="345" />
      <point x="181" y="345" />
      <point x="211" y="333" />
      <point x="211" y="323" type="qcurve" />
      <point x="211" y="322" type="line" />
      <point x="209" y="308" />
      <point x="209" y="282" type="qcurve" />
    </contour>
    <contour>
      <point x="202" y="523" />
      <point x="234" y="484" />
      <point x="234" y="440" />
      <point x="208" y="411" />
      <point x="161" y="411" />
      <point x="127" y="453" />
      <point x="127" y="497" />
      <point x="153" y="523" />
    </contour>
  </outline>
</glyph>
<glyph name="cent" format="2">
  <unicode hex="00A2" />
  <advance width="569" />
  <outline>
    <contour>
      <point x="348" y="441" type="line" />
      <point x="338" y="441" type="line" />
      <point x="271" y="441" />
      <point x="128" y="296" />
      <point x="128" y="205" type="qcurve" />
      <point x="128" y="155" />
      <point x="174" y="84" />
      <point x="206" y="65" type="qcurve" />
    </contour>
    <contour>
      <point x="336" y="502" type="qcurve" />
      <point x="354" y="502" />
      <point x="371" y="500" type="qcurve" />
      <point x="386" y="543" />
      <point x="396" y="582" type="qcurve" />
      <point x="399" y="590" />
      <point x="421" y="590" />
      <point x="454" y="560" />
      <point x="454" y="540" />
      <point x="452" y="535" type="qcurve" />
      <point x="432" y="486" type="line" />
      <point x="477" y="470" />
      <point x="515" y="424" />
      <point x="515" y="397" />
      <point x="484" y="366" />
      <point x="467" y="366" />
      <point x="464" y="371" type="qcurve" />
      <point x="438" y="423" />
      <point x="411" y="430" type="qcurve" />
      <point x="399" y="402" type="line" />
      <point x="389" y="374" />
      <point x="356" y="287" />
      <point x="319" y="187" />
      <point x="287" y="99" />
      <point x="276" y="72" type="qcurve" />
      <point x="265" y="43" type="line" />
      <point x="268" y="42" />
      <point x="274" y="42" />
      <point x="278" y="42" type="qcurve" />
      <point x="421" y="42" />
      <point x="494" y="123" type="qcurve" />
      <point x="508" y="138" />
      <point x="527" y="138" />
      <point x="527" y="115" />
      <point x="498" y="69" />
      <point x="467" y="43" type="qcurve" />
      <point x="394" y="-17" />
      <point x="278" y="-17" type="qcurve" />
      <point x="262" y="-17" />
      <point x="243" y="-14" type="qcurve" />
      <point x="222" y="-78" type="line" />
      <point x="219" y="-86" />
      <point x="197" y="-86" />
      <point x="164" y="-61" />
      <point x="164" y="-46" type="qcurve" />
      <point x="164" y="-44" />
      <point x="171" y="-29" />
      <point x="176" y="-12" type="qcurve" />
      <point x="182" y="3" type="line" />
      <point x="130" y="27" />
      <point x="58" y="127" />
      <point x="58" y="261" />
      <point x="109" y="371" />
      <point x="190" y="454" />
      <point x="289" y="502" />
    </contour>
  </outline>
</glyph>
<glyph name="sterling" format="2">
  <unicode hex="00A3" />
  <advance width="730" />
  <outline>
    <contour>
      <point x="258" y="571" type="qcurve" />
      <point x="246" y="530" />
      <point x="246" y="466" />
      <point x="252" y="383" type="qcurve" />
      <point x="450" y="389" type="line" />
      <point x="505" y="391" />
      <point x="535" y="394" type="qcurve" />
      <point x="536" y="394" type="line" />
      <point x="549" y="394" />
      <point x="567" y="359" />
      <point x="567" y="330" />
      <point x="556" y="330" type="qcurve" />
      <point x="543" y="331" />
      <point x="514" y="331" type="qcurve" />
      <point x="451" y="331" type="line" />
      <point x="257" y="325" type="line" />
      <point x="260" y="296" />
      <point x="260" y="273" type="qcurve" />
      <point x="260" y="154" />
      <point x="221" y="77" type="qcurve" />
      <point x="231" y="77" type="line" />
      <point x="263" y="77" />
      <point x="517" y="41" />
      <point x="540" y="41" type="qcurve" />
      <point x="608" y="41" />
      <point x="648" y="63" type="qcurve" />
      <point x="661" y="70" />
      <point x="688" y="71" />
      <point x="688" y="48" />
      <point x="651" y="12" />
      <point x="588" y="-17" />
      <point x="504" y="-17" />
      <point x="400" y="-1" />
      <point x="287" y="15" />
      <point x="195" y="15" />
      <point x="141" y="-1" />
      <point x="94" y="-17" />
      <point x="53" y="-17" />
      <point x="38" y="-13" />
      <point x="38" y="0" />
      <point x="41" y="12" type="qcurve" />
      <point x="48" y="49" />
      <point x="69" y="49" type="qcurve" />
      <point x="78" y="49" type="line" />
      <point x="136" y="49" />
      <point x="157" y="92" type="qcurve" />
      <point x="192" y="159" />
      <point x="191" y="266" type="qcurve" />
      <point x="191" y="280" />
      <point x="186" y="324" type="qcurve" />
      <point x="169" y="323" type="line" />
      <point x="146" y="322" />
      <point x="98" y="319" />
      <point x="84" y="317" type="qcurve" />
      <point x="82" y="317" type="line" />
      <point x="70" y="317" />
      <point x="50" y="352" />
      <point x="50" y="382" />
      <point x="62" y="382" type="qcurve" />
      <point x="145" y="381" type="line" />
      <point x="181" y="381" type="line" />
      <point x="174" y="481" />
      <point x="174" y="489" type="qcurve" />
      <point x="174" y="562" />
      <point x="226" y="671" />
      <point x="318" y="731" />
      <point x="440" y="731" />
      <point x="487" y="717" type="qcurve" />
      <point x="568" y="693" />
      <point x="610" y="654" type="qcurve" />
      <point x="616" y="650" />
      <point x="616" y="628" />
      <point x="586" y="598" />
      <point x="563" y="598" />
      <point x="558" y="603" type="qcurve" />
      <point x="488" y="669" />
      <point x="287" y="668" />
    </contour>
  </outline>
</glyph>
<glyph name="currency" format="2">
  <unicode hex="00A4" />
  <advance width="542" />
  <outline>
    <contour>
      <point x="331" y="218" />
      <point x="400" y="289" />
      <point x="400" y="390" />
      <point x="331" y="460" />
      <point x="229" y="460" />
      <point x="159" y="390" />
      <point x="159" y="289" />
      <point x="229" y="218" />
    </contour>
    <contour>
      <point x="164" y="481" type="qcurve" />
      <point x="216" y="522" />
      <point x="341" y="522" />
      <point x="390" y="484" type="qcurve" />
      <point x="406" y="500" />
      <point x="437" y="538" type="qcurve" />
      <point x="442" y="543" />
      <point x="464" y="543" />
      <point x="500" y="515" />
      <point x="500" y="494" />
      <point x="468" y="468" />
      <point x="434" y="436" type="qcurve" />
      <point x="463" y="391" />
      <point x="463" y="284" />
      <point x="432" y="239" type="qcurve" />
      <point x="449" y="223" />
      <point x="490" y="187" />
      <point x="505" y="175" />
      <point x="505" y="155" />
      <point x="469" y="125" />
      <point x="447" y="125" />
      <point x="442" y="130" type="qcurve" />
      <point x="419" y="161" />
      <point x="387" y="190" type="qcurve" />
      <point x="341" y="155" />
      <point x="219" y="156" />
      <point x="167" y="195" type="qcurve" />
      <point x="127" y="157" />
      <point x="108" y="130" type="qcurve" />
      <point x="103" y="125" />
      <point x="81" y="125" />
      <point x="45" y="155" />
      <point x="45" y="174" />
      <point x="50" y="179" type="qcurve" />
      <point x="96" y="216" />
      <point x="124" y="244" type="qcurve" />
      <point x="96" y="286" />
      <point x="96" y="391" />
      <point x="122" y="430" type="qcurve" />
      <point x="89" y="465" />
      <point x="55" y="489" type="qcurve" />
      <point x="50" y="493" />
      <point x="50" y="514" />
      <point x="86" y="543" />
      <point x="109" y="543" />
      <point x="116" y="534" type="qcurve" />
      <point x="136" y="507" />
    </contour>
  </outline>
</glyph>
<glyph name="yen" format="2">
  <unicode hex="00A5" />
  <advance width="614" />
  <outline>
    <contour>
      <point x="92" y="374" type="line" />
      <point x="117" y="372" />
      <point x="141" y="372" type="qcurve" />
      <point x="181" y="372" type="line" />
      <point x="195" y="372" />
      <point x="209" y="373" type="qcurve" />
      <point x="247" y="374" type="line" />
      <point x="101" y="616" />
      <point x="37" y="687" type="qcurve" />
      <point x="35" y="689" />
      <point x="35" y="692" type="qcurve" />
      <point x="35" y="701" />
      <point x="75" y="719" />
      <point x="112" y="719" />
      <point x="127" y="693" />
      <point x="144" y="659" />
      <point x="196" y="580" />
      <point x="300" y="409" type="qcurve" />
      <point x="374" y="528" />
      <point x="462" y="667" />
      <point x="479" y="700" />
      <point x="495" y="726" />
      <point x="531" y="726" />
      <point x="570" y="709" />
      <point x="570" y="699" type="qcurve" />
      <point x="570" y="696" />
      <point x="561" y="686" type="qcurve" />
      <point x="504" y="619" />
      <point x="356" y="379" type="qcurve" />
      <point x="412" y="381" type="line" />
      <point x="429" y="382" />
      <point x="485" y="388" />
      <point x="510" y="388" />
      <point x="529" y="357" />
      <point x="529" y="328" />
      <point x="517" y="328" type="qcurve" />
      <point x="413" y="325" type="line" />
      <point x="337" y="322" type="line" />
      <point x="337" y="234" type="line" />
      <point x="412" y="238" type="line" />
      <point x="430" y="239" />
      <point x="485" y="245" />
      <point x="510" y="245" />
      <point x="529" y="214" />
      <point x="529" y="184" />
      <point x="517" y="184" type="qcurve" />
      <point x="413" y="181" type="line" />
      <point x="337" y="178" type="line" />
      <point x="337" y="150" type="line" />
      <point x="341" y="1" type="line" />
      <point x="341" y="-9" />
      <point x="302" y="-9" />
      <point x="262" y="6" />
      <point x="262" y="19" type="qcurve" />
      <point x="264" y="151" type="line" />
      <point x="264" y="175" type="line" />
      <point x="116" y="166" type="line" />
      <point x="115" y="166" type="line" />
      <point x="102" y="166" />
      <point x="80" y="203" />
      <point x="80" y="230" />
      <point x="90" y="230" type="qcurve" />
      <point x="92" y="230" type="line" />
      <point x="117" y="228" />
      <point x="141" y="228" type="qcurve" />
      <point x="181" y="228" type="line" />
      <point x="195" y="228" />
      <point x="209" y="229" type="qcurve" />
      <point x="264" y="231" type="line" />
      <point x="264" y="317" type="line" />
      <point x="261" y="317" type="line" />
      <point x="226" y="317" />
      <point x="116" y="309" type="qcurve" />
      <point x="115" y="309" type="line" />
      <point x="102" y="309" />
      <point x="80" y="346" />
      <point x="80" y="374" />
      <point x="90" y="374" type="qcurve" />
    </contour>
  </outline>
</glyph>
<glyph name="brokenbar" format="2">
  <unicode hex="00A6" />
  <advance width="358" />
  <outline>
    <contour>
      <point x="143" y="-16" type="line" />
      <point x="143" y="273" type="line" />
      <point x="214" y="273" type="line" />
      <point x="214" y="-16" type="line" />
    </contour>
    <contour>
      <point x="143" y="444" type="line" />
      <point x="143" y="734" type="line" />
      <point x="214" y="734" type="line" />
      <point x="214" y="444" type="line" />
    </contour>
  </outline>
</glyph>
<glyph name="guillemotleft" format="2">
  <unicode hex="00AB" />
  <advance width="542" />
  <outline>
    <contour>
      <point x="294" y="55" type="line" />
      <point x="300" y="49" />
      <point x="300" y="20" />
      <point x="283" y="-16" />
      <point x="272" y="-16" type="qcurve" />
      <point x="268" y="-16" />
      <point x="252" y="4" />
      <point x="226" y="37" />
      <point x="100" y="171" />
      <point x="41" y="214" type="qcurve" />
      <point x="27" y="224" />
      <point x="27" y="257" type="qcurve" />
      <point x="27" y="269" />
      <point x="31" y="273" type="qcurve" />
      <point x="61" y="298" type="line" />
      <point x="191" y="407" />
      <point x="263" y="498" type="qcurve" />
      <point x="266" y="502" />
      <point x="270" y="502" type="qcurve" />
      <point x="280" y="502" />
      <point x="300" y="468" />
      <point x="300" y="439" />
      <point x="289" y="429" />
      <point x="162" y="306" />
      <point x="95" y="247" type="qcurve" />
      <point x="176" y="174" />
      <point x="246" y="102" type="qcurve" />
    </contour>
    <contour>
      <point x="504" y="55" type="line" />
      <point x="510" y="49" />
      <point x="510" y="20" />
      <point x="493" y="-16" />
      <point x="482" y="-16" type="qcurve" />
      <point x="478" y="-16" />
      <point x="462" y="4" />
      <point x="436" y="37" />
      <point x="395" y="80" type="qcurve" />
      <point x="310" y="171" />
      <point x="251" y="214" type="qcurve" />
      <point x="237" y="224" />
      <point x="237" y="257" type="qcurve" />
      <point x="237" y="269" />
      <point x="241" y="273" type="qcurve" />
      <point x="271" y="298" type="line" />
      <point x="401" y="407" />
      <point x="473" y="498" type="qcurve" />
      <point x="476" y="502" />
      <point x="480" y="502" type="qcurve" />
      <point x="490" y="502" />
      <point x="510" y="468" />
      <point x="510" y="439" />
      <point x="499" y="429" />
      <point x="372" y="306" />
      <point x="305" y="247" type="qcurve" />
      <point x="386" y="174" />
      <point x="456" y="102" type="qcurve" />
    </contour>
  </outline>
</glyph>
<glyph name="uni00AD" format="2">
  <unicode hex="00AD" />
  <advance width="512" />
  <outline>
    <contour>
      <point x="369" y="290" type="line" />
      <point x="403" y="290" />
      <point x="441" y="292" type="qcurve" />
      <point x="442" y="292" type="line" />
      <point x="450" y="292" />
      <point x="462" y="263" />
      <point x="462" y="223" />
      <point x="447" y="223" type="qcurve" />
      <point x="368" y="225" type="line" />
      <point x="142" y="225" type="line" />
      <point x="85" y="225" />
      <point x="67" y="222" type="qcurve" />
      <point x="66" y="222" type="line" />
      <point x="58" y="222" />
      <point x="46" y="251" />
      <point x="46" y="292" />
      <point x="61" y="292" type="qcurve" />
      <point x="92" y="290" />
      <point x="143" y="290" type="qcurve" />
    </contour>
  </outline>
</glyph>
<glyph name="registered" format="2">
  <unicode hex="00AE" />
  <advance width="798" />
  <outline>
    <contour>
      <point x="414" y="523" type="qcurve" />
      <point x="365" y="523" />
      <point x="333" y="512" type="qcurve" />
      <point x="333" y="385" type="line" />
      <point x="335" y="387" />
      <point x="340" y="387" type="qcurve" />
      <point x="358" y="385" type="line" />
      <point x="364" y="385" />
      <point x="371" y="385" type="qcurve" />
      <point x="436" y="385" />
      <point x="499" y="436" />
      <point x="499" y="467" type="qcurve" />
      <point x="499" y="523" />
    </contour>
    <contour>
      <point x="269" y="147" type="qcurve" />
      <point x="270" y="208" type="line" />
      <point x="270" y="507" type="line" />
      <point x="262" y="512" />
      <point x="250" y="537" />
      <point x="250" y="560" />
      <point x="261" y="561" type="qcurve" />
      <point x="295" y="566" />
      <point x="358" y="581" />
      <point x="469" y="581" />
      <point x="501" y="564" type="qcurve" />
      <point x="561" y="533" />
      <point x="561" y="469" type="qcurve" />
      <point x="561" y="431" />
      <point x="539" y="403" type="qcurve" />
      <point x="494" y="344" />
      <point x="402" y="338" type="qcurve" />
      <point x="430" y="308" />
      <point x="465" y="267" type="qcurve" />
      <point x="546" y="170" />
      <point x="606" y="150" />
      <point x="606" y="135" type="qcurve" />
      <point x="606" y="123" />
      <point x="532" y="123" />
      <point x="504" y="145" type="qcurve" />
      <point x="464" y="178" />
      <point x="350" y="321" />
      <point x="333" y="327" type="qcurve" />
      <point x="333" y="208" type="line" />
      <point x="334" y="136" type="line" />
      <point x="334" y="126" />
      <point x="298" y="126" />
      <point x="269" y="137" />
    </contour>
    <contour>
      <point x="698" y="283" />
      <point x="698" y="406" />
      <point x="652" y="513" />
      <point x="570" y="595" />
      <point x="463" y="641" />
      <point x="340" y="641" />
      <point x="232" y="595" />
      <point x="151" y="513" />
      <point x="104" y="406" />
      <point x="104" y="283" />
      <point x="151" y="175" />
      <point x="232" y="93" />
      <point x="340" y="47" />
      <point x="463" y="47" />
      <point x="570" y="93" />
      <point x="652" y="175" />
    </contour>
    <contour>
      <point x="753" y="417" />
      <point x="753" y="271" />
      <point x="697" y="144" />
      <point x="600" y="47" />
      <point x="473" y="-7" />
      <point x="328" y="-7" />
      <point x="201" y="47" />
      <point x="103" y="144" />
      <point x="49" y="271" />
      <point x="49" y="417" />
      <point x="103" y="544" />
      <point x="201" y="641" />
      <point x="328" y="695" />
      <point x="473" y="695" />
      <point x="600" y="641" />
      <point x="697" y="544" />
    </contour>
  </outline>
</glyph>
<glyph name="paragraph" format="2">
  <unicode hex="00B6" />
  <advance width="653" />
  <outline>
    <contour>
      <point x="550" y="-116" type="qcurve" />
      <point x="550" y="-132" />
      <point x="521" y="-132" type="qcurve" />
      <point x="507" y="-132" />
      <point x="479" y="-121" />
      <point x="479" y="-111" type="qcurve" />
      <point x="479" y="-110" type="line" />
      <point x="482" y="-78" />
      <point x="482" y="-22" type="qcurve" />
      <point x="482" y="731" type="line" />
      <point x="341" y="724" type="line" />
      <point x="341" y="-75" type="line" />
      <point x="341" y="-104" />
      <point x="342" y="-127" type="qcurve" />
      <point x="342" y="-143" />
      <point x="313" y="-143" type="qcurve" />
      <point x="299" y="-143" />
      <point x="271" y="-132" />
      <point x="271" y="-122" type="qcurve" />
      <point x="271" y="-121" type="line" />
      <point x="274" y="-88" />
      <point x="274" y="-33" type="qcurve" />
      <point x="274" y="397" type="line" />
      <point x="245" y="392" />
      <point x="186" y="392" />
      <point x="110" y="429" />
      <point x="61" y="503" />
      <point x="61" y="625" />
      <point x="122" y="723" />
      <point x="222" y="780" />
      <point x="281" y="782" type="qcurve" />
      <point x="496" y="793" type="line" />
      <point x="500" y="793" type="line" />
      <point x="524" y="793" />
      <point x="549" y="763" />
      <point x="549" y="743" type="qcurve" />
      <point x="549" y="-63" type="line" />
      <point x="549" y="-91" />
    </contour>
  </outline>
</glyph>
<glyph name="ordmasculine" format="2">
  <unicode hex="00BA" />
  <advance width="327" />
  <outline>
    <contour>
      <point x="96" y="575" />
      <point x="128" y="536" />
      <point x="190" y="536" />
      <point x="234" y="592" />
      <point x="234" y="666" />
      <point x="207" y="711" />
      <point x="154" y="711" />
      <point x="117" y="680" />
      <point x="96" y="633" />
    </contour>
    <contour>
      <point x="122" y="749" type="qcurve" />
      <point x="146" y="766" />
      <point x="230" y="766" />
      <point x="295" y="695" />
      <point x="295" y="630" type="qcurve" />
      <point x="295" y="593" />
      <point x="263" y="523" />
      <point x="202" y="479" />
      <point x="100" y="479" />
      <point x="36" y="551" />
      <point x="36" y="610" type="qcurve" />
      <point x="36" y="641" />
      <point x="60" y="706" />
      <point x="96" y="751" />
      <point x="119" y="751" />
    </contour>
  </outline>
</glyph>
<glyph name="guillemotright" format="2">
  <unicode hex="00BB" />
  <advance width="542" />
  <outline>
    <contour>
      <point x="86" y="96" type="line" />
      <point x="156" y="168" />
      <point x="237" y="241" type="qcurve" />
      <point x="99" y="368" />
      <point x="39" y="427" type="qcurve" />
      <point x="32" y="433" />
      <point x="32" y="462" />
      <point x="51" y="496" />
      <point x="61" y="496" type="qcurve" />
      <point x="65" y="496" />
      <point x="69" y="492" type="qcurve" />
      <point x="141" y="401" />
      <point x="270" y="292" type="qcurve" />
      <point x="301" y="267" type="line" />
      <point x="305" y="263" />
      <point x="305" y="252" type="qcurve" />
      <point x="305" y="218" />
      <point x="291" y="208" type="qcurve" />
      <point x="238" y="169" />
      <point x="121" y="47" type="qcurve" />
      <point x="106" y="31" />
      <point x="80" y="-2" />
      <point x="63" y="-23" />
      <point x="59" y="-23" type="qcurve" />
      <point x="49" y="-23" />
      <point x="32" y="14" />
      <point x="32" y="43" />
      <point x="38" y="49" type="qcurve" />
    </contour>
    <contour>
      <point x="296" y="96" type="line" />
      <point x="366" y="168" />
      <point x="446" y="241" type="qcurve" />
      <point x="308" y="368" />
      <point x="249" y="427" type="qcurve" />
      <point x="242" y="433" />
      <point x="242" y="462" />
      <point x="261" y="496" />
      <point x="271" y="496" type="qcurve" />
      <point x="275" y="496" />
      <point x="279" y="492" type="qcurve" />
      <point x="351" y="401" />
      <point x="480" y="292" type="qcurve" />
      <point x="511" y="267" type="line" />
      <point x="515" y="263" />
      <point x="515" y="252" type="qcurve" />
      <point x="515" y="218" />
      <point x="501" y="208" type="qcurve" />
      <point x="448" y="169" />
      <point x="331" y="47" type="qcurve" />
      <point x="316" y="31" />
      <point x="290" y="-2" />
      <point x="273" y="-23" />
      <point x="269" y="-23" type="qcurve" />
      <point x="259" y="-23" />
      <point x="242" y="14" />
      <point x="242" y="43" />
      <point x="248" y="49" type="qcurve" />
    </contour>
  </outline>
</glyph>
<glyph name="onehalf" format="2">
  <unicode hex="00BD" />
  <advance width="1024" />
  <outline>
    <contour>
      <point x="290" y="366" type="line" />
      <point x="290" y="351" />
      <point x="265" y="350" type="qcurve" />
      <point x="254" y="350" />
      <point x="224" y="368" />
      <point x="224" y="381" type="qcurve" />
      <point x="224" y="382" type="line" />
      <point x="226" y="454" type="line" />
      <point x="226" y="711" type="line" />
      <point x="185" y="686" />
      <point x="150" y="686" />
      <point x="125" y="703" />
      <point x="125" y="719" />
      <point x="135" y="723" type="qcurve" />
      <point x="163" y="733" />
      <point x="221" y="776" />
      <point x="244" y="803" />
      <point x="265" y="803" />
      <point x="292" y="781" />
      <point x="292" y="768" type="qcurve" />
      <point x="288" y="710" type="line" />
      <point x="288" y="459" type="line" />
      <point x="288" y="412" />
      <point x="290" y="367" type="qcurve" />
    </contour>
    <contour>
      <point x="184" y="10" type="line" />
      <point x="144" y="-30" />
      <point x="100" y="-83" type="qcurve" />
      <point x="94" y="-89" />
      <point x="76" y="-89" />
      <point x="55" y="-54" />
      <point x="55" y="-30" />
      <point x="60" y="-26" type="qcurve" />
      <point x="96" y="3" />
      <point x="144" y="51" type="qcurve" />
      <point x="852" y="763" type="line" />
      <point x="913" y="828" />
      <point x="936" y="856" type="qcurve" />
      <point x="942" y="863" />
      <point x="961" y="863" />
      <point x="981" y="828" />
      <point x="981" y="804" />
      <point x="976" y="800" type="qcurve" />
      <point x="958" y="783" />
      <point x="912" y="742" />
      <point x="892" y="722" type="qcurve" />
    </contour>
    <contour>
      <point x="828" y="-57" type="qcurve" />
      <point x="746" y="-57" type="line" />
      <point x="692" y="-57" />
      <point x="654" y="-65" type="qcurve" />
      <point x="651" y="-65" type="line" />
      <point x="635" y="-65" />
      <point x="611" y="-33" />
      <point x="611" y="-13" />
      <point x="620" y="-1" />
      <point x="628" y="7" />
      <point x="632" y="11" type="qcurve" />
      <point x="651" y="41" />
      <point x="733" y="128" />
      <point x="829" y="199" />
      <point x="882" y="247" />
      <point x="882" y="303" />
      <point x="841" y="334" />
      <point x="802" y="334" type="qcurve" />
      <point x="727" y="334" />
      <point x="698" y="280" type="qcurve" />
      <point x="687" y="255" />
      <point x="674" y="255" type="qcurve" />
      <point x="664" y="255" />
      <point x="638" y="278" />
      <point x="638" y="303" />
      <point x="644" y="312" type="qcurve" />
      <point x="698" y="391" />
      <point x="803" y="391" type="qcurve" />
      <point x="875" y="391" />
      <point x="944" y="328" />
      <point x="944" y="233" />
      <point x="884" y="163" />
      <point x="835" y="127" type="qcurve" />
      <point x="750" y="66" />
      <point x="697" y="-2" type="qcurve" />
      <point x="738" y="0" />
      <point x="779" y="0" type="qcurve" />
      <point x="877" y="-1" type="line" />
      <point x="920" y="0" type="line" />
      <point x="932" y="0" />
      <point x="949" y="-28" />
      <point x="949" y="-62" />
      <point x="932" y="-62" type="qcurve" />
      <point x="926" y="-62" />
      <point x="872" y="-57" />
    </contour>
  </outline>
</glyph>
<glyph name="questiondown" format="2">
  <unicode hex="00BF" />
  <advance width="614" />
  <outline>
    <contour>
      <point x="294" y="251" type="qcurve" />
      <point x="294" y="269" type="line" />
      <point x="294" y="281" />
      <point x="284" y="323" type="qcurve" />
      <point x="284" y="339" />
      <point x="350" y="339" />
      <point x="362" y="306" />
      <point x="362" y="258" />
      <point x="352" y="189" />
      <point x="309" y="131" />
      <point x="253" y="83" />
      <point x="225" y="58" type="qcurve" />
      <point x="162" y="2" />
      <point x="162" y="-71" type="qcurve" />
      <point x="162" y="-108" />
      <point x="209" y="-159" />
      <point x="311" y="-159" />
      <point x="397" y="-120" />
      <point x="450" y="-65" />
      <point x="463" y="-20" type="qcurve" />
      <point x="467" y="-7" />
      <point x="497" y="-7" />
      <point x="529" y="-35" />
      <point x="529" y="-56" />
      <point x="527" y="-59" type="qcurve" />
      <point x="436" y="-219" />
      <point x="264" y="-219" type="qcurve" />
      <point x="180" y="-219" />
      <point x="87" y="-143" />
      <point x="87" y="-24" />
      <point x="126" y="50" />
      <point x="184" y="105" />
      <point x="245" y="153" />
      <point x="294" y="211" />
    </contour>
    <contour>
      <point x="345" y="520" />
      <point x="378" y="481" />
      <point x="378" y="437" />
      <point x="351" y="408" />
      <point x="304" y="408" />
      <point x="270" y="450" />
      <point x="270" y="494" />
      <point x="296" y="520" />
    </contour>
  </outline>
</glyph>
<glyph name="Atilde" format="2">
  <unicode hex="00C3" />
  <advance width="706" />
  <outline>
    <contour>
      <point x="494" y="303" type="line" />
      <point x="407" y="505" />
      <point x="365" y="615" type="qcurve" />
      <point x="280" y="426" />
      <point x="215" y="292" type="qcurve" />
    </contour>
    <contour>
      <point x="-1" y="12" type="qcurve" />
      <point x="-1" y="18" />
      <point x="7" y="30" />
      <point x="15" y="45" />
      <point x="35" y="82" />
      <point x="75" y="157" />
      <point x="109" y="223" type="qcurve" />
      <point x="101" y="223" type="line" />
      <point x="89" y="223" />
      <point x="69" y="261" />
      <point x="69" y="292" />
      <point x="80" y="292" type="qcurve" />
      <point x="82" y="292" type="line" />
      <point x="100" y="290" />
      <point x="122" y="290" type="qcurve" />
      <point x="141" y="290" type="line" />
      <point x="279" y="566" />
      <point x="319" y="669" type="qcurve" />
      <point x="323" y="678" />
      <point x="328" y="716" />
      <point x="338" y="728" />
      <point x="370" y="728" />
      <point x="409" y="710" />
      <point x="412" y="696" type="qcurve" />
      <point x="409" y="676" type="line" />
      <point x="409" y="663" />
      <point x="463" y="532" type="qcurve" />
      <point x="634" y="126" />
      <point x="696" y="37" type="qcurve" />
      <point x="707" y="21" />
      <point x="708" y="16" type="qcurve" />
      <point x="708" y="4" />
      <point x="671" y="-9" />
      <point x="626" y="-9" />
      <point x="622" y="3" type="qcurve" />
      <point x="603" y="60" />
      <point x="580" y="112" type="qcurve" />
      <point x="519" y="245" type="line" />
      <point x="496" y="244" type="line" />
      <point x="471" y="243" />
      <point x="395" y="240" />
      <point x="310" y="236" />
      <point x="233" y="232" />
      <point x="185" y="230" />
      <point x="184" y="230" type="qcurve" />
      <point x="168" y="195" />
      <point x="152" y="163" type="qcurve" />
      <point x="121" y="101" type="line" />
      <point x="102" y="62" />
      <point x="83" y="10" type="qcurve" />
      <point x="77" y="-7" />
      <point x="-1" y="-7" />
    </contour>
    <contour>
      <point x="523" y="864" type="qcurve" />
      <point x="516" y="832" />
      <point x="465" y="777" />
      <point x="394" y="777" />
      <point x="354" y="800" />
      <point x="323" y="821" />
      <point x="284" y="821" />
      <point x="252" y="809" />
      <point x="237" y="774" />
      <point x="220" y="774" />
      <point x="210" y="783" />
      <point x="210" y="795" />
      <point x="211" y="797" type="qcurve" />
      <point x="219" y="830" />
      <point x="269" y="884" />
      <point x="340" y="884" />
      <point x="380" y="862" />
      <point x="412" y="840" />
      <point x="451" y="840" />
      <point x="482" y="852" />
      <point x="498" y="887" />
      <point x="506" y="887" type="qcurve" />
      <point x="524" y="887" />
      <point x="524" y="870" type="qcurve" />
      <point x="524" y="866" />
    </contour>
  </outline>
</glyph>
<glyph name="Iacute" format="2">
  <unicode hex="00CD" />
  <advance width="311" />
  <outline>
    <contour>
      <point x="116" y="18" type="qcurve" />
      <point x="118" y="110" type="line" />
      <point x="118" y="603" type="line" />
      <point x="115" y="712" type="line" />
      <point x="115" y="722" />
      <point x="155" y="722" />
      <point x="196" y="707" />
      <point x="196" y="693" type="qcurve" />
      <point x="194" y="602" type="line" />
      <point x="194" y="109" type="line" />
      <point x="197" y="0" type="line" />
      <point x="197" y="-10" />
      <point x="157" y="-10" />
      <point x="116" y="5" />
    </contour>
    <contour>
      <point x="273" y="836" type="qcurve" />
      <point x="223" y="818" />
      <point x="124" y="782" />
      <point x="83" y="759" />
      <point x="71" y="759" />
      <point x="60" y="769" />
      <point x="60" y="776" type="qcurve" />
      <point x="60" y="798" />
      <point x="214" y="900" type="qcurve" />
      <point x="216" y="901" />
      <point x="230" y="901" />
      <point x="244" y="891" type="qcurve" />
      <point x="281" y="866" />
      <point x="281" y="846" type="qcurve" />
      <point x="280" y="839" />
    </contour>
  </outline>
</glyph>
<glyph name="Idieresis" format="2">
  <unicode hex="00CF" />
  <advance width="311" />
  <outline>
    <contour>
      <point x="116" y="18" type="qcurve" />
      <point x="118" y="110" type="line" />
      <point x="118" y="603" type="line" />
      <point x="115" y="712" type="line" />
      <point x="115" y="722" />
      <point x="155" y="722" />
      <point x="196" y="707" />
      <point x="196" y="693" type="qcurve" />
      <point x="194" y="602" type="line" />
      <point x="194" y="109" type="line" />
      <point x="197" y="0" type="line" />
      <point x="197" y="-10" />
      <point x="157" y="-10" />
      <point x="116" y="5" />
    </contour>
    <contour>
      <point x="114" y="804" />
      <point x="88" y="777" />
      <point x="45" y="777" />
      <point x="10" y="819" />
      <point x="10" y="862" />
      <point x="35" y="889" />
      <point x="78" y="889" />
      <point x="114" y="849" />
    </contour>
    <contour>
      <point x="301" y="804" />
      <point x="275" y="777" />
      <point x="232" y="777" />
      <point x="198" y="819" />
      <point x="198" y="862" />
      <point x="222" y="889" />
      <point x="265" y="889" />
      <point x="301" y="849" />
    </contour>
  </outline>
</glyph>
<glyph name="Ocircumflex" format="2">
  <unicode hex="00D4" />
  <advance width="762" />
  <outline>
    <contour>
      <point x="176" y="129" />
      <point x="283" y="47" />
      <point x="362" y="47" type="qcurve" />
      <point x="509" y="47" />
      <point x="579" y="148" type="qcurve" />
      <point x="640" y="239" />
      <point x="640" y="380" type="qcurve" />
      <point x="640" y="495" />
      <point x="518" y="669" />
      <point x="409" y="669" type="qcurve" />
      <point x="365" y="669" />
      <point x="265" y="628" />
      <point x="179" y="547" />
      <point x="125" y="426" />
      <point x="125" y="265" />
    </contour>
    <contour>
      <point x="137" y="624" />
      <point x="186" y="674" />
      <point x="218" y="674" />
      <point x="228" y="662" type="qcurve" />
      <point x="306" y="731" />
      <point x="507" y="730" />
      <point x="640" y="637" />
      <point x="712" y="475" />
      <point x="712" y="384" type="qcurve" />
      <point x="712" y="205" />
      <point x="631" y="97" type="qcurve" />
      <point x="542" y="-19" />
      <point x="375" y="-18" type="qcurve" />
      <point x="265" y="-18" />
      <point x="123" y="77" />
      <point x="54" y="241" />
      <point x="54" y="414" />
      <point x="88" y="534" />
    </contour>
    <contour>
      <point x="394" y="844" type="qcurve" />
      <point x="291" y="778" />
      <point x="257" y="750" />
      <point x="249" y="750" type="qcurve" />
      <point x="231" y="750" />
      <point x="230" y="781" />
      <point x="313" y="865" type="qcurve" />
      <point x="333" y="887" />
      <point x="357" y="909" />
      <point x="379" y="913" />
      <point x="424" y="913" />
      <point x="449" y="889" />
      <point x="469" y="869" type="qcurve" />
      <point x="557" y="783" />
      <point x="557" y="750" />
      <point x="539" y="750" type="qcurve" />
      <point x="531" y="750" />
      <point x="494" y="782" />
    </contour>
  </outline>
</glyph>
<glyph name="Oslash" format="2">
  <unicode hex="00D8" />
  <advance width="762" />
  <outline>
    <contour>
      <point x="216" y="99" type="line" />
      <point x="274" y="47" />
      <point x="358" y="47" type="qcurve" />
      <point x="510" y="47" />
      <point x="579" y="148" type="qcurve" />
      <point x="640" y="239" />
      <point x="640" y="380" type="qcurve" />
      <point x="640" y="483" />
      <point x="594" y="557" type="qcurve" />
    </contour>
    <contour>
      <point x="554" y="610" type="line" />
      <point x="494" y="668" />
      <point x="409" y="669" type="qcurve" />
      <point x="365" y="669" />
      <point x="265" y="628" />
      <point x="179" y="547" />
      <point x="125" y="426" />
      <point x="125" y="358" type="qcurve" />
      <point x="125" y="226" />
      <point x="173" y="151" type="qcurve" />
    </contour>
    <contour>
      <point x="375" y="-18" type="qcurve" />
      <point x="253" y="-18" />
      <point x="172" y="45" type="qcurve" />
      <point x="154" y="23" />
      <point x="125" y="-16" />
      <point x="111" y="-36" />
      <point x="98" y="-36" />
      <point x="88" y="-27" type="qcurve" />
      <point x="62" y="-5" />
      <point x="62" y="15" type="qcurve" />
      <point x="62" y="22" />
      <point x="88" y="48" />
      <point x="126" y="93" type="qcurve" />
      <point x="54" y="189" />
      <point x="54" y="345" type="qcurve" />
      <point x="54" y="471" />
      <point x="113" y="579" type="qcurve" />
      <point x="138" y="624" />
      <point x="186" y="674" />
      <point x="218" y="674" />
      <point x="228" y="662" type="qcurve" />
      <point x="306" y="731" />
      <point x="525" y="730" />
      <point x="598" y="664" type="qcurve" />
      <point x="616" y="687" />
      <point x="645" y="728" />
      <point x="659" y="748" />
      <point x="676" y="748" />
      <point x="707" y="713" />
      <point x="707" y="689" />
      <point x="687" y="668" />
      <point x="642" y="615" type="qcurve" />
      <point x="712" y="519" />
      <point x="712" y="204" />
      <point x="542" y="-18" />
    </contour>
  </outline>
</glyph>
<glyph name="Udieresis" format="2">
  <unicode hex="00DC" />
  <advance width="727" />
  <outline>
    <contour>
      <point x="184" y="696" type="qcurve" />
      <point x="182" y="598" type="line" />
      <point x="182" y="215" type="line" />
      <point x="182" y="122" />
      <point x="269" y="46" />
      <point x="350" y="46" type="qcurve" />
      <point x="407" y="46" />
      <point x="496" y="98" />
      <point x="546" y="189" />
      <point x="546" y="248" type="qcurve" />
      <point x="546" y="609" type="line" />
      <point x="543" y="714" type="line" />
      <point x="543" y="726" />
      <point x="586" y="726" />
      <point x="622" y="712" />
      <point x="622" y="698" type="qcurve" />
      <point x="620" y="608" type="line" />
      <point x="620" y="236" type="line" />
      <point x="620" y="160" />
      <point x="552" y="45" />
      <point x="431" y="-18" />
      <point x="350" y="-18" type="qcurve" />
      <point x="108" y="-18" />
      <point x="109" y="203" type="qcurve" />
      <point x="109" y="600" type="line" />
      <point x="105" y="712" type="line" />
      <point x="105" y="724" />
      <point x="148" y="724" />
      <point x="184" y="709" />
    </contour>
    <contour>
      <point x="328" y="804" />
      <point x="302" y="777" />
      <point x="259" y="777" />
      <point x="224" y="819" />
      <point x="224" y="862" />
      <point x="249" y="889" />
      <point x="292" y="889" />
      <point x="328" y="849" />
    </contour>
    <contour>
      <point x="515" y="804" />
      <point x="489" y="777" />
      <point x="446" y="777" />
      <point x="412" y="819" />
      <point x="412" y="862" />
      <point x="436" y="889" />
      <point x="479" y="889" />
      <point x="515" y="849" />
    </contour>
  </outline>
</glyph>
<glyph name="Thorn" format="2">
  <unicode hex="00DE" />
  <advance width="632" />
  <outline>
    <contour>
      <point x="515" y="500" />
      <point x="420" y="571" />
      <point x="253" y="571" />
      <point x="180" y="551" type="qcurve" />
      <point x="180" y="258" type="line" />
      <point x="186" y="262" />
      <point x="194" y="262" type="qcurve" />
      <point x="365" y="273" />
      <point x="515" y="375" />
    </contour>
    <contour>
      <point x="106" y="17" type="qcurve" />
      <point x="109" y="119" type="line" />
      <point x="109" y="541" type="line" />
      <point x="108" y="541" type="line" />
      <point x="93" y="541" />
      <point x="61" y="578" />
      <point x="61" y="601" />
      <point x="71" y="602" type="qcurve" />
      <point x="109" y="609" type="line" />
      <point x="106" y="698" />
      <point x="105" y="712" type="qcurve" />
      <point x="105" y="722" />
      <point x="143" y="722" />
      <point x="181" y="707" />
      <point x="181" y="683" />
      <point x="179" y="646" />
      <point x="179" y="623" type="qcurve" />
      <point x="236" y="636" />
      <point x="418" y="636" />
      <point x="532" y="585" />
      <point x="589" y="500" />
      <point x="589" y="447" type="qcurve" />
      <point x="589" y="357" />
      <point x="532" y="304" type="qcurve" />
      <point x="437" y="215" />
      <point x="220" y="215" type="qcurve" />
      <point x="205" y="215" type="line" />
      <point x="191" y="215" />
      <point x="180" y="220" type="qcurve" />
      <point x="180" y="118" type="line" />
      <point x="183" y="-1" type="line" />
      <point x="183" y="-11" />
      <point x="145" y="-11" />
      <point x="106" y="4" />
    </contour>
  </outline>
</glyph>
<glyph name="germandbls" format="2">
  <unicode hex="00DF" />
  <advance width="624" />
  <outline>
    <contour>
      <point x="177" y="112" type="line" />
      <point x="181" y="3" type="line" />
      <point x="181" y="-8" />
      <point x="142" y="-8" />
      <point x="104" y="8" />
      <point x="104" y="22" type="qcurve" />
      <point x="104" y="23" type="line" />
      <point x="105" y="31" />
      <point x="105" y="41" type="qcurve" />
      <point x="105" y="490" type="line" />
      <point x="105" y="628" />
      <point x="174" y="691" type="qcurve" />
      <point x="230" y="743" />
      <point x="400" y="743" />
      <point x="497" y="655" />
      <point x="497" y="523" />
      <point x="414" y="437" />
      <point x="356" y="420" type="qcurve" />
      <point x="415" y="420" />
      <point x="507" y="368" />
      <point x="560" y="280" />
      <point x="560" y="160" />
      <point x="508" y="58" />
      <point x="414" y="-2" />
      <point x="290" y="-2" />
      <point x="180" y="73" />
      <point x="180" y="97" type="qcurve" />
      <point x="180" y="111" />
      <point x="194" y="112" type="qcurve" />
      <point x="203" y="112" />
      <point x="223" y="95" type="qcurve" />
      <point x="264" y="63" />
      <point x="409" y="63" />
      <point x="484" y="144" />
      <point x="484" y="296" />
      <point x="391" y="377" />
      <point x="306" y="377" type="qcurve" />
      <point x="297" y="377" type="line" />
      <point x="267" y="377" />
      <point x="232" y="367" type="qcurve" />
      <point x="230" y="367" type="line" />
      <point x="219" y="367" />
      <point x="199" y="407" />
      <point x="199" y="435" />
      <point x="207" y="435" type="qcurve" />
      <point x="329" y="439" />
      <point x="391" y="503" type="qcurve" />
      <point x="422" y="535" />
      <point x="422" y="585" type="qcurve" />
      <point x="422" y="677" />
      <point x="319" y="677" type="qcurve" />
      <point x="231" y="677" />
      <point x="197" y="598" type="qcurve" />
      <point x="178" y="555" />
      <point x="177" y="483" type="qcurve" />
    </contour>
  </outline>
</glyph>
<glyph name="aacute" format="2">
  <unicode hex="00E1" />
  <advance width="602" />
  <outline>
    <contour>
      <point x="130" y="188" type="qcurve" />
      <point x="130" y="44" />
      <point x="230" y="44" type="qcurve" />
      <point x="276" y="44" />
      <point x="322" y="78" type="qcurve" />
      <point x="432" y="158" />
      <point x="431" y="346" type="qcurve" />
      <point x="431" y="373" />
      <point x="432" y="398" type="qcurve" />
      <point x="423" y="389" />
      <point x="410" y="389" />
      <point x="407" y="393" type="qcurve" />
      <point x="375" y="448" />
      <point x="250" y="449" />
      <point x="130" y="298" />
    </contour>
    <contour>
      <point x="493" y="-13" type="qcurve" />
      <point x="450" y="-13" />
      <point x="435" y="124" type="qcurve" />
      <point x="396" y="50" />
      <point x="287" y="-18" />
      <point x="227" y="-18" type="qcurve" />
      <point x="150" y="-18" />
      <point x="58" y="85" />
      <point x="58" y="183" type="qcurve" />
      <point x="58" y="314" />
      <point x="140" y="413" type="qcurve" />
      <point x="177" y="458" />
      <point x="269" y="510" />
      <point x="317" y="510" type="qcurve" />
      <point x="399" y="510" />
      <point x="433" y="440" type="qcurve" />
      <point x="433" y="498" type="line" />
      <point x="433" y="509" />
      <point x="473" y="509" />
      <point x="513" y="494" />
      <point x="513" y="481" type="qcurve" />
      <point x="513" y="479" type="line" />
      <point x="499" y="386" />
      <point x="499" y="205" type="qcurve" />
      <point x="499" y="94" />
      <point x="536" y="37" type="qcurve" />
      <point x="538" y="33" />
      <point x="538" y="18" />
      <point x="510" y="-13" />
    </contour>
    <contour>
      <point x="234" y="591" type="qcurve" />
      <point x="216" y="591" />
      <point x="197" y="607" type="qcurve" />
      <point x="182" y="619" />
      <point x="181" y="633" type="qcurve" />
      <point x="181" y="635" />
      <point x="181" y="638" type="qcurve" />
      <point x="182" y="643" />
      <point x="187" y="647" type="qcurve" />
      <point x="357" y="787" type="line" />
      <point x="365" y="794" />
      <point x="374" y="795" type="qcurve" />
      <point x="384" y="795" />
      <point x="395" y="779" />
      <point x="395" y="773" type="qcurve" />
      <point x="395" y="766" />
      <point x="390" y="761" type="qcurve" />
      <point x="253" y="598" type="line" />
      <point x="246" y="591" />
    </contour>
  </outline>
</glyph>
<glyph name="atilde" format="2">
  <unicode hex="00E3" />
  <advance width="588" />
  <outline>
    <contour>
      <point x="127" y="184" type="qcurve" />
      <point x="127" y="43" />
      <point x="225" y="43" type="qcurve" />
      <point x="270" y="43" />
      <point x="314" y="76" type="qcurve" />
      <point x="420" y="154" />
      <point x="421" y="338" type="qcurve" />
      <point x="421" y="364" />
      <point x="422" y="389" type="qcurve" />
      <point x="413" y="380" />
      <point x="400" y="380" />
      <point x="397" y="384" type="qcurve" />
      <point x="365" y="438" />
      <point x="244" y="438" />
      <point x="127" y="290" />
    </contour>
    <contour>
      <point x="481" y="-13" type="qcurve" />
      <point x="439" y="-13" />
      <point x="425" y="121" type="qcurve" />
      <point x="387" y="49" />
      <point x="280" y="-18" />
      <point x="222" y="-18" type="qcurve" />
      <point x="147" y="-18" />
      <point x="57" y="83" />
      <point x="57" y="179" type="qcurve" />
      <point x="57" y="307" />
      <point x="137" y="403" type="qcurve" />
      <point x="173" y="447" />
      <point x="263" y="498" />
      <point x="310" y="498" type="qcurve" />
      <point x="390" y="498" />
      <point x="423" y="430" type="qcurve" />
      <point x="423" y="486" type="line" />
      <point x="423" y="496" />
      <point x="462" y="497" />
      <point x="501" y="482" />
      <point x="501" y="470" type="qcurve" />
      <point x="501" y="468" type="line" />
      <point x="488" y="377" />
      <point x="487" y="200" type="qcurve" />
      <point x="487" y="92" />
      <point x="523" y="36" type="qcurve" />
      <point x="525" y="32" />
      <point x="525" y="18" />
      <point x="497" y="-13" />
    </contour>
    <contour>
      <point x="458" y="695" type="qcurve" />
      <point x="451" y="663" />
      <point x="399" y="606" />
      <point x="330" y="606" />
      <point x="289" y="632" />
      <point x="256" y="658" />
      <point x="237" y="658" type="qcurve" />
      <point x="195" y="658" />
      <point x="174" y="615" type="qcurve" />
      <point x="168" y="603" />
      <point x="160" y="603" type="qcurve" />
      <point x="143" y="603" />
      <point x="142" y="621" type="qcurve" />
      <point x="142" y="635" />
      <point x="166" y="680" />
      <point x="210" y="717" />
      <point x="271" y="717" />
      <point x="312" y="690" />
      <point x="345" y="665" />
      <point x="365" y="665" type="qcurve" />
      <point x="407" y="665" />
      <point x="427" y="708" type="qcurve" />
      <point x="433" y="720" />
      <point x="440" y="720" type="qcurve" />
      <point x="458" y="720" />
      <point x="459" y="702" type="qcurve" />
      <point x="459" y="698" />
    </contour>
  </outline>
</glyph>
<glyph name="aring" format="2">
  <unicode hex="00E5" />
  <advance width="588" />
  <outline>
    <contour>
      <point x="127" y="184" type="qcurve" />
      <point x="127" y="43" />
      <point x="225" y="43" type="qcurve" />
      <point x="270" y="43" />
      <point x="314" y="76" type="qcurve" />
      <point x="420" y="154" />
      <point x="421" y="338" type="qcurve" />
      <point x="421" y="364" />
      <point x="422" y="389" type="qcurve" />
      <point x="413" y="380" />
      <point x="400" y="380" />
      <point x="397" y="384" type="qcurve" />
      <point x="365" y="438" />
      <point x="244" y="438" />
      <point x="127" y="290" />
    </contour>
    <contour>
      <point x="481" y="-13" type="qcurve" />
      <point x="439" y="-13" />
      <point x="425" y="121" type="qcurve" />
      <point x="387" y="49" />
      <point x="280" y="-18" />
      <point x="222" y="-18" type="qcurve" />
      <point x="147" y="-18" />
      <point x="57" y="83" />
      <point x="57" y="179" type="qcurve" />
      <point x="57" y="307" />
      <point x="137" y="403" type="qcurve" />
      <point x="173" y="447" />
      <point x="263" y="498" />
      <point x="310" y="498" type="qcurve" />
      <point x="390" y="498" />
      <point x="423" y="430" type="qcurve" />
      <point x="423" y="486" type="line" />
      <point x="423" y="496" />
      <point x="462" y="497" />
      <point x="501" y="482" />
      <point x="501" y="470" type="qcurve" />
      <point x="501" y="468" type="line" />
      <point x="488" y="377" />
      <point x="487" y="200" type="qcurve" />
      <point x="487" y="92" />
      <point x="523" y="36" type="qcurve" />
      <point x="525" y="32" />
      <point x="525" y="18" />
      <point x="497" y="-13" />
    </contour>
    <contour>
      <point x="323" y="614" />
      <point x="349" y="642" />
      <point x="349" y="682" />
      <point x="323" y="709" />
      <point x="283" y="709" />
      <point x="255" y="682" />
      <point x="255" y="642" />
      <point x="283" y="614" />
    </contour>
    <contour>
      <point x="398" y="700" />
      <point x="398" y="623" />
      <point x="341" y="565" />
      <point x="263" y="565" />
      <point x="206" y="623" />
      <point x="206" y="700" />
      <point x="263" y="758" />
      <point x="341" y="758" />
    </contour>
  </outline>
</glyph>
<glyph name="ccedilla" format="2">
  <unicode hex="00E7" />
  <advance width="542" />
  <outline>
    <contour>
      <point x="295" y="-74" type="qcurve" />
      <point x="281" y="-74" />
      <point x="260" y="-78" type="qcurve" />
      <point x="255" y="-78" type="line" />
      <point x="242" y="-78" />
      <point x="222" y="-59" />
      <point x="222" y="-39" />
      <point x="231" y="-17" type="qcurve" />
      <point x="183" y="-11" />
      <point x="143" y="15" type="qcurve" />
      <point x="57" y="73" />
      <point x="57" y="318" />
      <point x="141" y="410" type="qcurve" />
      <point x="179" y="451" />
      <point x="273" y="498" />
      <point x="362" y="498" />
      <point x="420" y="474" />
      <point x="454" y="441" />
      <point x="469" y="414" />
      <point x="469" y="411" type="qcurve" />
      <point x="469" y="395" />
      <point x="438" y="364" />
      <point x="420" y="364" />
      <point x="417" y="369" type="qcurve" />
      <point x="410" y="383" />
      <point x="395" y="410" />
      <point x="384" y="417" type="qcurve" />
      <point x="354" y="437" />
      <point x="323" y="437" type="qcurve" />
      <point x="257" y="437" />
      <point x="193" y="369" type="qcurve" />
      <point x="127" y="295" />
      <point x="127" y="204" type="qcurve" />
      <point x="127" y="151" />
      <point x="147" y="115" type="qcurve" />
      <point x="187" y="41" />
      <point x="263" y="41" type="qcurve" />
      <point x="361" y="41" />
      <point x="464" y="143" type="qcurve" />
      <point x="479" y="158" />
      <point x="498" y="159" />
      <point x="498" y="140" />
      <point x="473" y="95" />
      <point x="449" y="68" type="qcurve" />
      <point x="389" y="-1" />
      <point x="296" y="-15" type="qcurve" />
      <point x="292" y="-30" type="line" />
      <point x="297" y="-29" />
      <point x="305" y="-29" />
      <point x="309" y="-29" type="qcurve" />
      <point x="345" y="-29" />
      <point x="397" y="-63" />
      <point x="397" y="-139" />
      <point x="340" y="-184" />
      <point x="243" y="-184" />
      <point x="198" y="-162" type="qcurve" />
      <point x="188" y="-156" />
      <point x="187" y="-124" />
      <point x="198" y="-99" />
      <point x="209" y="-99" />
      <point x="221" y="-108" type="qcurve" />
      <point x="250" y="-128" />
      <point x="310" y="-128" />
      <point x="333" y="-117" />
      <point x="333" y="-100" type="qcurve" />
      <point x="333" y="-74" />
    </contour>
  </outline>
</glyph>
<glyph name="egrave" format="2">
  <unicode hex="00E8" />
  <advance width="569" />
  <outline>
    <contour>
      <point x="163" y="264" type="line" />
      <point x="280" y="264" />
      <point x="380" y="292" type="qcurve" />
      <point x="418" y="303" />
      <point x="439" y="331" />
      <point x="439" y="357" type="qcurve" />
      <point x="439" y="448" />
      <point x="334" y="449" type="qcurve" />
      <point x="261" y="449" />
      <point x="157" y="329" />
      <point x="141" y="264" type="qcurve" />
    </contour>
    <contour>
      <point x="61" y="266" type="qcurve" />
      <point x="73" y="267" type="line" />
      <point x="88" y="350" />
      <point x="237" y="510" />
      <point x="335" y="510" type="qcurve" />
      <point x="400" y="510" />
      <point x="438" y="486" type="qcurve" />
      <point x="509" y="445" />
      <point x="509" y="356" type="qcurve" />
      <point x="509" y="320" />
      <point x="497" y="279" />
      <point x="455" y="253" />
      <point x="408" y="238" type="qcurve" />
      <point x="304" y="206" />
      <point x="146" y="206" type="qcurve" />
      <point x="133" y="206" type="line" />
      <point x="133" y="195" type="line" />
      <point x="133" y="127" />
      <point x="204" y="43" />
      <point x="263" y="43" type="qcurve" />
      <point x="395" y="43" />
      <point x="477" y="131" type="qcurve" />
      <point x="490" y="146" />
      <point x="512" y="146" />
      <point x="512" y="125" />
      <point x="481" y="77" />
      <point x="450" y="48" type="qcurve" />
      <point x="374" y="-19" />
      <point x="256" y="-18" type="qcurve" />
      <point x="203" y="-18" />
      <point x="116" y="35" />
      <point x="65" y="135" />
      <point x="65" y="205" type="qcurve" />
      <point x="65" y="219" type="line" />
      <point x="42" y="236" />
      <point x="42" y="266" />
    </contour>
    <contour>
      <point x="367" y="585" type="qcurve" />
      <point x="363" y="573" />
      <point x="352" y="572" type="qcurve" />
      <point x="348" y="572" />
      <point x="344" y="573" type="qcurve" />
      <point x="338" y="576" />
      <point x="308" y="612" />
      <point x="266" y="646" type="qcurve" />
      <point x="223" y="679" />
      <point x="182" y="717" type="qcurve" />
      <point x="179" y="720" />
      <point x="179" y="725" type="qcurve" />
      <point x="179" y="727" />
      <point x="180" y="730" type="qcurve" />
      <point x="183" y="738" />
      <point x="198" y="748" type="qcurve" />
      <point x="213" y="756" />
      <point x="230" y="760" type="qcurve" />
      <point x="241" y="763" />
      <point x="248" y="763" type="qcurve" />
      <point x="252" y="763" />
      <point x="254" y="762" type="qcurve" />
      <point x="260" y="759" />
      <point x="262" y="758" type="qcurve" />
      <point x="366" y="617" />
      <point x="367" y="588" type="qcurve" />
      <point x="367" y="586" />
    </contour>
  </outline>
</glyph>
<glyph name="eacute" format="2">
  <unicode hex="00E9" />
  <advance width="569" />
  <outline>
    <contour>
      <point x="234" y="591" type="qcurve" />
      <point x="216" y="591" />
      <point x="197" y="607" type="qcurve" />
      <point x="182" y="619" />
      <point x="181" y="633" type="qcurve" />
      <point x="181" y="635" />
      <point x="181" y="638" type="qcurve" />
      <point x="182" y="643" />
      <point x="187" y="647" type="qcurve" />
      <point x="357" y="787" type="line" />
      <point x="365" y="794" />
      <point x="374" y="795" type="qcurve" />
      <point x="384" y="795" />
      <point x="395" y="779" />
      <point x="395" y="773" type="qcurve" />
      <point x="395" y="766" />
      <point x="390" y="761" type="qcurve" />
      <point x="253" y="598" type="line" />
      <point x="246" y="591" />
    </contour>
    <contour>
      <point x="163" y="264" type="line" />
      <point x="280" y="264" />
      <point x="380" y="292" type="qcurve" />
      <point x="418" y="303" />
      <point x="439" y="331" />
      <point x="439" y="357" type="qcurve" />
      <point x="439" y="448" />
      <point x="334" y="449" type="qcurve" />
      <point x="261" y="449" />
      <point x="157" y="329" />
      <point x="141" y="264" type="qcurve" />
    </contour>
    <contour>
      <point x="61" y="266" type="qcurve" />
      <point x="73" y="267" type="line" />
      <point x="88" y="350" />
      <point x="237" y="510" />
      <point x="335" y="510" type="qcurve" />
      <point x="400" y="510" />
      <point x="438" y="486" type="qcurve" />
      <point x="509" y="445" />
      <point x="509" y="356" type="qcurve" />
      <point x="509" y="320" />
      <point x="497" y="279" />
      <point x="455" y="253" />
      <point x="408" y="238" type="qcurve" />
      <point x="304" y="206" />
      <point x="146" y="206" type="qcurve" />
      <point x="133" y="206" type="line" />
      <point x="133" y="195" type="line" />
      <point x="133" y="127" />
      <point x="204" y="43" />
      <point x="263" y="43" type="qcurve" />
      <point x="395" y="43" />
      <point x="477" y="131" type="qcurve" />
      <point x="490" y="146" />
      <point x="512" y="146" />
      <point x="512" y="125" />
      <point x="481" y="77" />
      <point x="450" y="48" type="qcurve" />
      <point x="374" y="-19" />
      <point x="256" y="-18" type="qcurve" />
      <point x="203" y="-18" />
      <point x="116" y="35" />
      <point x="65" y="135" />
      <point x="65" y="205" type="qcurve" />
      <point x="65" y="219" type="line" />
      <point x="42" y="236" />
      <point x="42" y="266" />
    </contour>
  </outline>
</glyph>
<glyph name="iacute" format="2">
  <unicode hex="00ED" />
  <advance width="275" />
  <outline>
    <contour>
      <point x="81" y="591" type="qcurve" />
      <point x="63" y="591" />
      <point x="43" y="607" type="qcurve" />
      <point x="28" y="619" />
      <point x="28" y="633" type="qcurve" />
      <point x="28" y="635" />
      <point x="28" y="638" type="qcurve" />
      <point x="29" y="643" />
      <point x="34" y="647" type="qcurve" />
      <point x="204" y="787" type="line" />
      <point x="212" y="794" />
      <point x="220" y="795" type="qcurve" />
      <point x="230" y="795" />
      <point x="242" y="779" />
      <point x="242" y="773" type="qcurve" />
      <point x="242" y="766" />
      <point x="237" y="761" type="qcurve" />
      <point x="99" y="598" type="line" />
      <point x="93" y="591" />
    </contour>
    <contour>
      <point x="99" y="17" type="qcurve" />
      <point x="101" y="111" type="line" />
      <point x="101" y="386" type="line" />
      <point x="98" y="498" type="line" />
      <point x="98" y="508" />
      <point x="136" y="508" />
      <point x="176" y="492" />
      <point x="176" y="479" type="qcurve" />
      <point x="174" y="386" type="line" />
      <point x="174" y="111" type="line" />
      <point x="177" y="-1" type="line" />
      <point x="177" y="-10" />
      <point x="140" y="-10" />
      <point x="99" y="5" />
    </contour>
  </outline>
</glyph>
<glyph name="ograve" format="2">
  <unicode hex="00F2" />
  <advance width="588" />
  <outline>
    <contour>
      <point x="280" y="45" type="qcurve" />
      <point x="332" y="45" />
      <point x="412" y="100" />
      <point x="461" y="198" />
      <point x="461" y="344" />
      <point x="392" y="446" />
      <point x="239" y="446" />
      <point x="129" y="303" />
      <point x="129" y="132" />
      <point x="208" y="45" />
    </contour>
    <contour>
      <point x="204" y="467" type="qcurve" />
      <point x="261" y="510" />
      <point x="387" y="510" />
      <point x="433" y="479" type="qcurve" />
      <point x="530" y="416" />
      <point x="530" y="257" type="qcurve" />
      <point x="530" y="149" />
      <point x="466" y="70" type="qcurve" />
      <point x="396" y="-18" />
      <point x="175" y="-18" />
      <point x="58" y="108" />
      <point x="58" y="217" type="qcurve" />
      <point x="58" y="301" />
      <point x="112" y="392" type="qcurve" />
      <point x="132" y="430" />
      <point x="174" y="476" />
      <point x="196" y="476" />
    </contour>
    <contour>
      <point x="387" y="585" type="qcurve" />
      <point x="383" y="573" />
      <point x="373" y="572" type="qcurve" />
      <point x="369" y="572" />
      <point x="365" y="573" type="qcurve" />
      <point x="360" y="575" />
      <point x="329" y="612" />
      <point x="288" y="646" type="qcurve" />
      <point x="207" y="714" />
      <point x="203" y="717" type="qcurve" />
      <point x="200" y="720" />
      <point x="200" y="725" type="qcurve" />
      <point x="200" y="727" />
      <point x="201" y="730" type="qcurve" />
      <point x="204" y="738" />
      <point x="219" y="746" type="qcurve" />
      <point x="234" y="755" />
      <point x="251" y="760" type="qcurve" />
      <point x="262" y="762" />
      <point x="268" y="762" type="qcurve" />
      <point x="272" y="762" />
      <point x="274" y="762" type="qcurve" />
      <point x="281" y="759" />
      <point x="284" y="757" type="qcurve" />
      <point x="387" y="617" />
      <point x="387" y="588" type="qcurve" />
      <point x="387" y="586" />
    </contour>
  </outline>
</glyph>
<glyph name="oslash" format="2">
  <unicode hex="00F8" />
  <advance width="575" />
  <outline>
    <contour>
      <point x="183" y="69" type="line" />
      <point x="219" y="44" />
      <point x="324" y="44" />
      <point x="402" y="98" />
      <point x="450" y="193" />
      <point x="450" y="240" type="qcurve" />
      <point x="450" y="322" />
      <point x="427" y="367" type="qcurve" />
    </contour>
    <contour>
      <point x="386" y="416" type="line" />
      <point x="356" y="436" />
      <point x="314" y="436" type="qcurve" />
      <point x="234" y="436" />
      <point x="126" y="296" />
      <point x="126" y="213" type="qcurve" />
      <point x="126" y="158" />
      <point x="143" y="118" type="qcurve" />
    </contour>
    <contour>
      <point x="266" y="-18" type="qcurve" />
      <point x="198" y="-18" />
      <point x="142" y="18" type="qcurve" />
      <point x="134" y="8" />
      <point x="121" y="-12" />
      <point x="115" y="-20" type="qcurve" />
      <point x="113" y="-25" />
      <point x="94" y="-26" />
      <point x="66" y="4" />
      <point x="66" y="25" />
      <point x="76" y="37" />
      <point x="91" y="54" />
      <point x="98" y="62" type="qcurve" />
      <point x="57" y="121" />
      <point x="57" y="294" />
      <point x="109" y="383" type="qcurve" />
      <point x="129" y="420" />
      <point x="170" y="465" />
      <point x="191" y="465" />
      <point x="199" y="456" type="qcurve" />
      <point x="255" y="498" />
      <point x="380" y="498" />
      <point x="427" y="465" type="qcurve" />
      <point x="439" y="481" />
      <point x="455" y="505" type="qcurve" />
      <point x="458" y="510" />
      <point x="475" y="510" />
      <point x="502" y="479" />
      <point x="502" y="456" />
      <point x="494" y="445" />
      <point x="479" y="430" />
      <point x="471" y="421" type="qcurve" />
      <point x="518" y="354" />
      <point x="518" y="146" />
      <point x="455" y="68" type="qcurve" />
      <point x="387" y="-18" />
    </contour>
  </outline>
</glyph>
<glyph name="ucircumflex" format="2">
  <unicode hex="00FB" />
  <advance width="604" />
  <outline>
    <contour>
      <point x="166" y="467" type="qcurve" />
      <point x="164" y="377" type="line" />
      <point x="164" y="179" type="line" />
      <point x="164" y="120" />
      <point x="207" y="43" />
      <point x="290" y="43" />
      <point x="373" y="111" />
      <point x="436" y="241" />
      <point x="436" y="350" type="qcurve" />
      <point x="436" y="486" type="line" />
      <point x="436" y="496" />
      <point x="475" y="497" />
      <point x="512" y="482" />
      <point x="512" y="470" type="qcurve" />
      <point x="512" y="468" type="line" />
      <point x="500" y="394" />
      <point x="500" y="99" />
      <point x="539" y="36" type="qcurve" />
      <point x="540" y="34" />
      <point x="540" y="18" />
      <point x="512" y="-13" />
      <point x="497" y="-13" type="qcurve" />
      <point x="471" y="-13" />
      <point x="445" y="77" />
      <point x="442" y="117" type="qcurve" />
      <point x="414" y="61" />
      <point x="311" y="-18" />
      <point x="188" y="-18" />
      <point x="156" y="9" type="qcurve" />
      <point x="95" y="59" />
      <point x="94" y="175" type="qcurve" />
      <point x="94" y="377" type="line" />
      <point x="91" y="485" type="line" />
      <point x="91" y="495" />
      <point x="128" y="496" />
      <point x="166" y="480" />
    </contour>
    <contour>
      <point x="305" y="673" type="qcurve" />
      <point x="202" y="607" />
      <point x="168" y="579" />
      <point x="160" y="579" type="qcurve" />
      <point x="142" y="579" />
      <point x="141" y="610" />
      <point x="223" y="694" type="qcurve" />
      <point x="245" y="716" />
      <point x="268" y="738" />
      <point x="290" y="742" />
      <point x="335" y="742" />
      <point x="347" y="730" type="qcurve" />
      <point x="379" y="698" type="line" />
      <point x="468" y="612" />
      <point x="468" y="579" />
      <point x="450" y="579" type="qcurve" />
      <point x="442" y="579" />
      <point x="405" y="611" />
    </contour>
  </outline>
</glyph>
<glyph name="yacute" format="2">
  <unicode hex="00FD" />
  <advance width="512" />
  <outline>
    <contour>
      <point x="30" y="475" type="qcurve" />
      <point x="30" y="491" />
      <point x="106" y="492" />
      <point x="113" y="475" type="qcurve" />
      <point x="121" y="451" />
      <point x="141" y="402" type="qcurve" />
      <point x="260" y="127" type="line" />
      <point x="386" y="392" type="line" />
      <point x="406" y="432" />
      <point x="423" y="487" type="qcurve" />
      <point x="426" y="496" />
      <point x="456" y="497" />
      <point x="490" y="474" />
      <point x="490" y="452" />
      <point x="479" y="430" />
      <point x="457" y="388" />
      <point x="447" y="370" type="qcurve" />
      <point x="231" y="-84" type="line" />
      <point x="211" y="-127" />
      <point x="159" y="-168" />
      <point x="119" y="-168" type="qcurve" />
      <point x="109" y="-168" type="line" />
      <point x="90" y="-168" />
      <point x="40" y="-160" />
      <point x="16" y="-140" type="qcurve" />
      <point x="11" y="-135" />
      <point x="11" y="-113" />
      <point x="32" y="-77" />
      <point x="52" y="-77" />
      <point x="78" y="-103" />
      <point x="132" y="-103" />
      <point x="164" y="-79" />
      <point x="178" y="-47" type="qcurve" />
      <point x="223" y="47" type="line" />
      <point x="74" y="386" type="line" />
      <point x="51" y="435" />
      <point x="30" y="473" />
    </contour>
    <contour>
      <point x="370" y="665" type="qcurve" />
      <point x="320" y="647" />
      <point x="220" y="611" />
      <point x="179" y="588" />
      <point x="167" y="588" />
      <point x="157" y="598" />
      <point x="157" y="611" />
      <point x="196" y="652" />
      <point x="310" y="729" type="qcurve" />
      <point x="312" y="730" />
      <point x="327" y="730" />
      <point x="340" y="721" type="qcurve" />
      <point x="377" y="695" />
      <point x="377" y="675" type="qcurve" />
      <point x="377" y="668" />
    </contour>
  </outline>
</glyph>
<glyph name="abreve" format="2">
  <unicode hex="0103" />
  <advance width="588" />
  <outline>
    <contour>
      <point x="127" y="184" type="qcurve" />
      <point x="127" y="43" />
      <point x="225" y="43" type="qcurve" />
      <point x="270" y="43" />
      <point x="314" y="76" type="qcurve" />
      <point x="420" y="154" />
      <point x="421" y="338" type="qcurve" />
      <point x="421" y="364" />
      <point x="422" y="389" type="qcurve" />
      <point x="413" y="380" />
      <point x="400" y="380" />
      <point x="397" y="384" type="qcurve" />
      <point x="365" y="438" />
      <point x="244" y="438" />
      <point x="127" y="290" />
    </contour>
    <contour>
      <point x="481" y="-13" type="qcurve" />
      <point x="439" y="-13" />
      <point x="425" y="121" type="qcurve" />
      <point x="387" y="49" />
      <point x="280" y="-18" />
      <point x="222" y="-18" type="qcurve" />
      <point x="147" y="-18" />
      <point x="57" y="83" />
      <point x="57" y="179" type="qcurve" />
      <point x="57" y="307" />
      <point x="137" y="403" type="qcurve" />
      <point x="173" y="447" />
      <point x="263" y="498" />
      <point x="310" y="498" type="qcurve" />
      <point x="390" y="498" />
      <point x="423" y="430" type="qcurve" />
      <point x="423" y="486" type="line" />
      <point x="423" y="496" />
      <point x="462" y="497" />
      <point x="501" y="482" />
      <point x="501" y="470" type="qcurve" />
      <point x="501" y="468" type="line" />
      <point x="488" y="377" />
      <point x="487" y="200" type="qcurve" />
      <point x="487" y="92" />
      <point x="523" y="36" type="qcurve" />
      <point x="525" y="32" />
      <point x="525" y="18" />
      <point x="497" y="-13" />
    </contour>
    <contour>
      <point x="452" y="680" />
      <point x="476" y="660" />
      <point x="476" y="652" type="qcurve" />
      <point x="476" y="630" />
      <point x="386" y="554" />
      <point x="231" y="554" />
      <point x="180" y="597" type="qcurve" />
      <point x="137" y="632" />
      <point x="137" y="652" type="qcurve" />
      <point x="137" y="660" />
      <point x="163" y="680" />
      <point x="188" y="680" />
      <point x="195" y="670" type="qcurve" />
      <point x="227" y="615" />
      <point x="307" y="614" type="qcurve" />
      <point x="346" y="614" />
      <point x="401" y="638" />
      <point x="420" y="670" type="qcurve" />
      <point x="426" y="680" />
    </contour>
  </outline>
</glyph>
<glyph name="cacute" format="2">
  <unicode hex="0107" />
  <advance width="542" />
  <outline>
    <contour>
      <point x="479" y="159" />
      <point x="498" y="159" />
      <point x="498" y="140" />
      <point x="469" y="88" />
      <point x="439" y="57" type="qcurve" />
      <point x="365" y="-19" />
      <point x="256" y="-18" type="qcurve" />
      <point x="203" y="-18" />
      <point x="112" y="32" />
      <point x="57" y="129" />
      <point x="57" y="260" />
      <point x="103" y="369" />
      <point x="179" y="451" />
      <point x="273" y="498" />
      <point x="362" y="498" />
      <point x="420" y="474" />
      <point x="454" y="441" />
      <point x="469" y="414" />
      <point x="469" y="411" type="qcurve" />
      <point x="469" y="395" />
      <point x="438" y="364" />
      <point x="420" y="364" />
      <point x="417" y="369" type="qcurve" />
      <point x="410" y="383" />
      <point x="395" y="410" />
      <point x="384" y="417" type="qcurve" />
      <point x="354" y="437" />
      <point x="323" y="437" type="qcurve" />
      <point x="257" y="437" />
      <point x="193" y="369" type="qcurve" />
      <point x="127" y="295" />
      <point x="127" y="204" type="qcurve" />
      <point x="127" y="151" />
      <point x="147" y="115" type="qcurve" />
      <point x="187" y="41" />
      <point x="263" y="41" type="qcurve" />
      <point x="361" y="41" />
      <point x="464" y="143" type="qcurve" />
    </contour>
    <contour>
      <point x="409" y="665" type="qcurve" />
      <point x="359" y="647" />
      <point x="259" y="611" />
      <point x="218" y="588" />
      <point x="206" y="588" />
      <point x="196" y="598" />
      <point x="196" y="611" />
      <point x="234" y="652" />
      <point x="349" y="729" type="qcurve" />
      <point x="351" y="730" />
      <point x="366" y="730" />
      <point x="379" y="721" type="qcurve" />
      <point x="416" y="695" />
      <point x="416" y="675" type="qcurve" />
      <point x="416" y="668" />
    </contour>
  </outline>
</glyph>
<glyph name="Ccircumflex" format="2">
  <unicode hex="0108" />
  <advance width="719" />
  <outline>
    <contour>
      <point x="676" y="154" type="qcurve" />
      <point x="641" y="94" />
      <point x="569" y="45" type="qcurve" />
      <point x="478" y="-18" />
      <point x="366" y="-18" type="qcurve" />
      <point x="277" y="-18" />
      <point x="134" y="47" />
      <point x="52" y="187" />
      <point x="52" y="390" />
      <point x="108" y="547" />
      <point x="207" y="665" />
      <point x="340" y="730" />
      <point x="418" y="730" type="qcurve" />
      <point x="571" y="730" />
      <point x="643" y="643" type="qcurve" />
      <point x="646" y="639" />
      <point x="646" y="617" />
      <point x="620" y="583" />
      <point x="596" y="583" />
      <point x="590" y="592" type="qcurve" />
      <point x="543" y="665" />
      <point x="296" y="665" />
      <point x="213" y="563" type="qcurve" />
      <point x="126" y="460" />
      <point x="126" y="131" />
      <point x="244" y="74" type="qcurve" />
      <point x="299" y="46" />
      <point x="419" y="46" />
      <point x="523" y="82" />
      <point x="620" y="147" />
      <point x="651" y="189" type="qcurve" />
      <point x="663" y="204" />
      <point x="690" y="205" />
      <point x="690" y="179" />
    </contour>
    <contour>
      <point x="394" y="844" type="qcurve" />
      <point x="291" y="778" />
      <point x="257" y="750" />
      <point x="249" y="750" type="qcurve" />
      <point x="231" y="750" />
      <point x="230" y="781" />
      <point x="313" y="865" type="qcurve" />
      <point x="333" y="887" />
      <point x="357" y="909" />
      <point x="379" y="913" />
      <point x="424" y="913" />
      <point x="449" y="889" />
      <point x="469" y="869" type="qcurve" />
      <point x="557" y="783" />
      <point x="557" y="750" />
      <point x="539" y="750" type="qcurve" />
      <point x="531" y="750" />
      <point x="494" y="782" />
    </contour>
  </outline>
</glyph>
<glyph name="Ccaron" format="2">
  <unicode hex="010C" />
  <advance width="719" />
  <outline>
    <contour>
      <point x="676" y="154" type="qcurve" />
      <point x="641" y="94" />
      <point x="569" y="45" type="qcurve" />
      <point x="478" y="-18" />
      <point x="366" y="-18" type="qcurve" />
      <point x="277" y="-18" />
      <point x="134" y="47" />
      <point x="52" y="187" />
      <point x="52" y="390" />
      <point x="108" y="547" />
      <point x="207" y="665" />
      <point x="340" y="730" />
      <point x="418" y="730" type="qcurve" />
      <point x="571" y="730" />
      <point x="643" y="643" type="qcurve" />
      <point x="646" y="639" />
      <point x="646" y="617" />
      <point x="620" y="583" />
      <point x="596" y="583" />
      <point x="590" y="592" type="qcurve" />
      <point x="543" y="665" />
      <point x="296" y="665" />
      <point x="213" y="563" type="qcurve" />
      <point x="126" y="460" />
      <point x="126" y="131" />
      <point x="244" y="74" type="qcurve" />
      <point x="299" y="46" />
      <point x="419" y="46" />
      <point x="523" y="82" />
      <point x="620" y="147" />
      <point x="651" y="189" type="qcurve" />
      <point x="663" y="204" />
      <point x="690" y="205" />
      <point x="690" y="179" />
    </contour>
    <contour>
      <point x="381" y="823" type="qcurve" />
      <point x="417" y="847" />
      <point x="486" y="891" />
      <point x="517" y="918" />
      <point x="525" y="918" type="qcurve" />
      <point x="543" y="918" />
      <point x="544" y="884" />
      <point x="455" y="798" type="qcurve" />
      <point x="426" y="769" type="line" />
      <point x="411" y="754" />
      <point x="350" y="754" />
      <point x="339" y="763" type="qcurve" />
      <point x="267" y="831" />
      <point x="229" y="881" type="qcurve" />
      <point x="217" y="896" />
      <point x="217" y="901" type="qcurve" />
      <point x="217" y="917" />
      <point x="236" y="918" type="qcurve" />
      <point x="244" y="918" />
      <point x="274" y="891" />
      <point x="345" y="847" />
    </contour>
  </outline>
</glyph>
<glyph name="Dcaron" format="2">
  <unicode hex="010E" />
  <advance width="745" />
  <outline>
    <contour>
      <point x="180" y="41" type="line" />
      <point x="331" y="44" />
      <point x="524" y="130" />
      <point x="616" y="275" />
      <point x="616" y="356" type="qcurve" />
      <point x="616" y="503" />
      <point x="425" y="667" />
      <point x="305" y="667" type="qcurve" />
      <point x="239" y="667" />
      <point x="180" y="650" type="qcurve" />
    </contour>
    <contour>
      <point x="52" y="15" type="qcurve" />
      <point x="52" y="34" />
      <point x="109" y="35" type="qcurve" />
      <point x="109" y="641" type="line" />
      <point x="95" y="644" />
      <point x="68" y="674" />
      <point x="68" y="694" />
      <point x="75" y="697" type="qcurve" />
      <point x="124" y="716" />
      <point x="250" y="727" type="qcurve" />
      <point x="284" y="729" />
      <point x="310" y="729" type="qcurve" />
      <point x="467" y="729" />
      <point x="689" y="528" />
      <point x="689" y="209" />
      <point x="592" y="113" type="qcurve" />
      <point x="509" y="31" />
      <point x="383" y="8" type="qcurve" />
      <point x="304" y="-6" />
      <point x="187" y="-8" type="qcurve" />
      <point x="173" y="-8" type="line" />
      <point x="52" y="-9" />
    </contour>
    <contour>
      <point x="369" y="838" type="qcurve" />
      <point x="405" y="862" />
      <point x="474" y="905" />
      <point x="505" y="932" />
      <point x="513" y="932" type="qcurve" />
      <point x="531" y="932" />
      <point x="531" y="898" />
      <point x="442" y="812" type="qcurve" />
      <point x="414" y="783" type="line" />
      <point x="399" y="768" />
      <point x="338" y="768" />
      <point x="327" y="777" type="qcurve" />
      <point x="255" y="845" />
      <point x="217" y="895" type="qcurve" />
      <point x="205" y="910" />
      <point x="205" y="915" type="qcurve" />
      <point x="205" y="931" />
      <point x="223" y="932" type="qcurve" />
      <point x="231" y="932" />
      <point x="262" y="905" />
      <point x="333" y="862" />
    </contour>
  </outline>
</glyph>
<glyph name="Dcroat" format="2">
  <unicode hex="0110" />
  <advance width="745" />
  <outline>
    <contour>
      <point x="109" y="381" type="line" />
      <point x="109" y="641" type="line" />
      <point x="95" y="644" />
      <point x="68" y="674" />
      <point x="68" y="694" />
      <point x="75" y="697" type="qcurve" />
      <point x="124" y="716" />
      <point x="250" y="727" type="qcurve" />
      <point x="284" y="729" />
      <point x="310" y="729" type="qcurve" />
      <point x="467" y="729" />
      <point x="689" y="528" />
      <point x="689" y="209" />
      <point x="592" y="113" type="qcurve" />
      <point x="509" y="31" />
      <point x="383" y="8" type="qcurve" />
      <point x="304" y="-6" />
      <point x="187" y="-8" type="qcurve" />
      <point x="173" y="-8" type="line" />
      <point x="52" y="-8" />
      <point x="52" y="15" type="qcurve" />
      <point x="52" y="34" />
      <point x="109" y="35" type="qcurve" />
      <point x="109" y="326" type="line" />
      <point x="94" y="325" />
      <point x="57" y="323" type="qcurve" />
      <point x="56" y="323" type="line" />
      <point x="43" y="323" />
      <point x="25" y="353" />
      <point x="25" y="381" />
      <point x="36" y="381" type="qcurve" />
    </contour>
    <contour>
      <point x="180" y="383" type="line" />
      <point x="195" y="384" type="line" />
      <point x="223" y="385" type="line" />
      <point x="260" y="387" />
      <point x="301" y="391" type="qcurve" />
      <point x="302" y="391" type="line" />
      <point x="315" y="391" />
      <point x="335" y="360" />
      <point x="335" y="332" />
      <point x="324" y="332" type="qcurve" />
      <point x="284" y="332" type="line" />
      <point x="255" y="332" />
      <point x="234" y="331" type="qcurve" />
      <point x="195" y="330" type="line" />
      <point x="180" y="329" type="line" />
      <point x="180" y="41" type="line" />
      <point x="331" y="44" />
      <point x="524" y="130" />
      <point x="616" y="275" />
      <point x="616" y="356" type="qcurve" />
      <point x="616" y="503" />
      <point x="425" y="667" />
      <point x="305" y="667" type="qcurve" />
      <point x="239" y="667" />
      <point x="180" y="650" type="qcurve" />
    </contour>
  </outline>
</glyph>
<glyph name="Edotaccent" format="2">
  <unicode hex="0116" />
  <advance width="653" />
  <outline>
    <contour>
      <point x="483" y="66" type="line" />
      <point x="522" y="66" />
      <point x="568" y="69" type="qcurve" />
      <point x="569" y="69" type="line" />
      <point x="582" y="69" />
      <point x="602" y="31" />
      <point x="602" y="-2" />
      <point x="591" y="-2" type="qcurve" />
      <point x="590" y="-2" type="line" />
      <point x="565" y="1" />
      <point x="501" y="1" type="qcurve" />
      <point x="484" y="1" type="line" />
      <point x="200" y="-3" type="line" />
      <point x="184" y="-3" />
      <point x="160" y="-10" />
      <point x="130" y="-10" />
      <point x="101" y="26" />
      <point x="101" y="38" type="qcurve" />
      <point x="109" y="86" type="line" />
      <point x="109" y="352" type="line" />
      <point x="98" y="358" />
      <point x="81" y="391" />
      <point x="81" y="414" />
      <point x="89" y="414" type="qcurve" />
      <point x="91" y="414" type="line" />
      <point x="99" y="412" />
      <point x="109" y="412" type="qcurve" />
      <point x="109" y="649" type="line" />
      <point x="104" y="701" type="line" />
      <point x="104" y="715" />
      <point x="133" y="716" />
      <point x="172" y="703" />
      <point x="173" y="702" type="qcurve" />
      <point x="451" y="721" type="line" />
      <point x="475" y="723" />
      <point x="526" y="729" />
      <point x="550" y="729" />
      <point x="570" y="693" />
      <point x="570" y="662" />
      <point x="557" y="662" type="qcurve" />
      <point x="494" y="662" type="line" />
      <point x="466" y="662" />
      <point x="452" y="660" type="qcurve" />
      <point x="178" y="642" type="line" />
      <point x="178" y="413" type="line" />
      <point x="394" y="426" type="line" />
      <point x="418" y="428" />
      <point x="470" y="434" />
      <point x="494" y="434" />
      <point x="514" y="398" />
      <point x="514" y="366" />
      <point x="501" y="366" type="qcurve" />
      <point x="436" y="366" type="line" />
      <point x="409" y="366" />
      <point x="395" y="365" type="qcurve" />
      <point x="178" y="352" type="line" />
      <point x="178" y="60" type="line" />
    </contour>
    <contour>
      <point x="388" y="837" />
      <point x="362" y="810" />
      <point x="319" y="810" />
      <point x="285" y="852" />
      <point x="285" y="895" />
      <point x="309" y="922" />
      <point x="352" y="922" />
      <point x="388" y="882" />
    </contour>
  </outline>
</glyph>
<glyph name="ecaron" format="2">
  <unicode hex="011B" />
  <advance width="556" />
  <outline>
    <contour>
      <point x="159" y="258" type="line" />
      <point x="274" y="258" />
      <point x="371" y="285" type="qcurve" />
      <point x="408" y="296" />
      <point x="429" y="323" />
      <point x="429" y="349" type="qcurve" />
      <point x="429" y="438" />
      <point x="326" y="438" type="qcurve" />
      <point x="255" y="438" />
      <point x="153" y="321" />
      <point x="138" y="258" type="qcurve" />
    </contour>
    <contour>
      <point x="61" y="260" type="qcurve" />
      <point x="71" y="261" type="line" />
      <point x="86" y="342" />
      <point x="231" y="498" />
      <point x="327" y="498" type="qcurve" />
      <point x="390" y="498" />
      <point x="428" y="475" type="qcurve" />
      <point x="497" y="435" />
      <point x="497" y="348" type="qcurve" />
      <point x="497" y="313" />
      <point x="485" y="272" />
      <point x="444" y="247" />
      <point x="398" y="232" type="qcurve" />
      <point x="296" y="200" />
      <point x="143" y="201" type="qcurve" />
      <point x="130" y="201" type="line" />
      <point x="130" y="190" type="line" />
      <point x="130" y="123" />
      <point x="199" y="42" />
      <point x="257" y="42" type="qcurve" />
      <point x="386" y="42" />
      <point x="466" y="128" type="qcurve" />
      <point x="479" y="143" />
      <point x="500" y="143" />
      <point x="500" y="122" />
      <point x="470" y="75" />
      <point x="439" y="47" type="qcurve" />
      <point x="364" y="-19" />
      <point x="250" y="-18" type="qcurve" />
      <point x="198" y="-18" />
      <point x="113" y="34" />
      <point x="63" y="132" />
      <point x="63" y="200" type="qcurve" />
      <point x="63" y="214" type="line" />
      <point x="41" y="230" />
      <point x="42" y="247" type="qcurve" />
      <point x="42" y="260" />
    </contour>
    <contour>
      <point x="278" y="652" type="qcurve" />
      <point x="314" y="676" />
      <point x="383" y="720" />
      <point x="414" y="746" />
      <point x="422" y="746" type="qcurve" />
      <point x="440" y="746" />
      <point x="440" y="713" />
      <point x="352" y="627" type="qcurve" />
      <point x="332" y="608" />
      <point x="307" y="583" />
      <point x="247" y="583" />
      <point x="236" y="592" type="qcurve" />
      <point x="164" y="660" />
      <point x="114" y="725" />
      <point x="114" y="730" type="qcurve" />
      <point x="114" y="746" />
      <point x="132" y="746" type="qcurve" />
      <point x="140" y="746" />
      <point x="171" y="720" />
      <point x="242" y="676" />
    </contour>
  </outline>
</glyph>
<glyph name="gcircumflex" format="2">
  <unicode hex="011D" />
  <advance width="593" />
  <outline>
    <contour>
      <point x="435" y="399" type="line" />
      <point x="427" y="388" />
      <point x="408" y="388" />
      <point x="402" y="394" type="qcurve" />
      <point x="370" y="437" />
      <point x="301" y="437" type="qcurve" />
      <point x="268" y="437" />
      <point x="204" y="399" />
      <point x="180" y="367" type="qcurve" />
      <point x="128" y="298" />
      <point x="128" y="136" />
      <point x="182" y="69" />
      <point x="227" y="69" type="qcurve" />
      <point x="320" y="69" />
      <point x="385" y="141" type="qcurve" />
      <point x="431" y="192" />
      <point x="434" y="269" type="qcurve" />
      <point x="435" y="297" />
      <point x="435" y="332" type="qcurve" />
    </contour>
    <contour>
      <point x="505" y="468" type="line" />
      <point x="501" y="390" />
      <point x="501" y="367" type="qcurve" />
      <point x="501" y="51" type="line" />
      <point x="501" y="-24" />
      <point x="431" y="-126" />
      <point x="317" y="-179" />
      <point x="178" y="-179" />
      <point x="93" y="-131" />
      <point x="66" y="-87" type="qcurve" />
      <point x="63" y="-82" />
      <point x="62" y="-62" />
      <point x="94" y="-29" />
      <point x="118" y="-29" />
      <point x="122" y="-39" type="qcurve" />
      <point x="140" y="-81" />
      <point x="197" y="-117" />
      <point x="302" y="-117" />
      <point x="385" y="-76" />
      <point x="434" y="0" />
      <point x="434" y="52" type="qcurve" />
      <point x="434" y="121" type="line" />
      <point x="396" y="60" />
      <point x="290" y="7" />
      <point x="236" y="7" type="qcurve" />
      <point x="155" y="7" />
      <point x="58" y="114" />
      <point x="58" y="323" />
      <point x="131" y="410" type="qcurve" />
      <point x="207" y="498" />
      <point x="397" y="498" />
      <point x="435" y="432" type="qcurve" />
      <point x="432" y="486" type="line" />
      <point x="432" y="496" />
      <point x="468" y="497" />
      <point x="505" y="481" />
      <point x="505" y="469" type="qcurve" />
    </contour>
    <contour>
      <point x="312" y="673" type="qcurve" />
      <point x="209" y="607" />
      <point x="175" y="579" />
      <point x="167" y="579" type="qcurve" />
      <point x="149" y="579" />
      <point x="148" y="610" />
      <point x="231" y="694" type="qcurve" />
      <point x="251" y="716" />
      <point x="275" y="738" />
      <point x="297" y="742" />
      <point x="342" y="742" />
      <point x="367" y="718" />
      <point x="387" y="698" type="qcurve" />
      <point x="475" y="612" />
      <point x="475" y="579" />
      <point x="457" y="579" type="qcurve" />
      <point x="449" y="579" />
      <point x="412" y="611" />
    </contour>
  </outline>
</glyph>
<glyph name="gbreve" format="2">
  <unicode hex="011F" />
  <advance width="593" />
  <outline>
    <contour>
      <point x="435" y="399" type="line" />
      <point x="427" y="388" />
      <point x="408" y="388" />
      <point x="402" y="394" type="qcurve" />
      <point x="370" y="437" />
      <point x="301" y="437" type="qcurve" />
      <point x="268" y="437" />
      <point x="204" y="399" />
      <point x="180" y="367" type="qcurve" />
      <point x="128" y="298" />
      <point x="128" y="136" />
      <point x="182" y="69" />
      <point x="227" y="69" type="qcurve" />
      <point x="320" y="69" />
      <point x="385" y="141" type="qcurve" />
      <point x="431" y="192" />
      <point x="434" y="269" type="qcurve" />
      <point x="435" y="297" />
      <point x="435" y="332" type="qcurve" />
    </contour>
    <contour>
      <point x="505" y="468" type="line" />
      <point x="501" y="390" />
      <point x="501" y="367" type="qcurve" />
      <point x="501" y="51" type="line" />
      <point x="501" y="-24" />
      <point x="431" y="-126" />
      <point x="317" y="-179" />
      <point x="178" y="-179" />
      <point x="93" y="-131" />
      <point x="66" y="-87" type="qcurve" />
      <point x="63" y="-82" />
      <point x="62" y="-62" />
      <point x="94" y="-29" />
      <point x="118" y="-29" />
      <point x="122" y="-39" type="qcurve" />
      <point x="140" y="-81" />
      <point x="197" y="-117" />
      <point x="302" y="-117" />
      <point x="385" y="-76" />
      <point x="434" y="0" />
      <point x="434" y="52" type="qcurve" />
      <point x="434" y="121" type="line" />
      <point x="396" y="60" />
      <point x="290" y="7" />
      <point x="236" y="7" type="qcurve" />
      <point x="155" y="7" />
      <point x="58" y="114" />
      <point x="58" y="323" />
      <point x="131" y="410" type="qcurve" />
      <point x="207" y="498" />
      <point x="397" y="498" />
      <point x="435" y="432" type="qcurve" />
      <point x="432" y="486" type="line" />
      <point x="432" y="496" />
      <point x="468" y="497" />
      <point x="505" y="481" />
      <point x="505" y="469" type="qcurve" />
    </contour>
    <contour>
      <point x="452" y="680" />
      <point x="476" y="660" />
      <point x="476" y="652" type="qcurve" />
      <point x="476" y="630" />
      <point x="386" y="554" />
      <point x="231" y="554" />
      <point x="180" y="597" type="qcurve" />
      <point x="137" y="632" />
      <point x="137" y="652" type="qcurve" />
      <point x="137" y="660" />
      <point x="163" y="680" />
      <point x="188" y="680" />
      <point x="195" y="670" type="qcurve" />
      <point x="227" y="615" />
      <point x="307" y="614" type="qcurve" />
      <point x="346" y="614" />
      <point x="401" y="638" />
      <point x="420" y="670" type="qcurve" />
      <point x="426" y="680" />
    </contour>
  </outline>
</glyph>
<glyph name="uni0123" format="2">
  <unicode hex="0123" />
  <advance width="593" />
  <outline>
    <contour>
      <point x="435" y="399" type="line" />
      <point x="427" y="388" />
      <point x="408" y="388" />
      <point x="402" y="394" type="qcurve" />
      <point x="370" y="437" />
      <point x="301" y="437" type="qcurve" />
      <point x="268" y="437" />
      <point x="204" y="399" />
      <point x="180" y="367" type="qcurve" />
      <point x="128" y="298" />
      <point x="128" y="136" />
      <point x="182" y="69" />
      <point x="227" y="69" type="qcurve" />
      <point x="320" y="69" />
      <point x="385" y="141" type="qcurve" />
      <point x="431" y="192" />
      <point x="434" y="269" type="qcurve" />
      <point x="435" y="297" />
      <point x="435" y="332" type="qcurve" />
    </contour>
    <contour>
      <point x="505" y="468" type="line" />
      <point x="501" y="390" />
      <point x="501" y="367" type="qcurve" />
      <point x="501" y="51" type="line" />
      <point x="501" y="-24" />
      <point x="431" y="-126" />
      <point x="317" y="-179" />
      <point x="178" y="-179" />
      <point x="93" y="-131" />
      <point x="66" y="-87" type="qcurve" />
      <point x="63" y="-82" />
      <point x="62" y="-62" />
      <point x="94" y="-29" />
      <point x="118" y="-29" />
      <point x="122" y="-39" type="qcurve" />
      <point x="140" y="-81" />
      <point x="197" y="-117" />
      <point x="302" y="-117" />
      <point x="385" y="-76" />
      <point x="434" y="0" />
      <point x="434" y="52" type="qcurve" />
      <point x="434" y="121" type="line" />
      <point x="396" y="60" />
      <point x="290" y="7" />
      <point x="236" y="7" type="qcurve" />
      <point x="155" y="7" />
      <point x="58" y="114" />
      <point x="58" y="323" />
      <point x="131" y="410" type="qcurve" />
      <point x="207" y="498" />
      <point x="397" y="498" />
      <point x="435" y="432" type="qcurve" />
      <point x="432" y="486" type="line" />
      <point x="432" y="496" />
      <point x="468" y="497" />
      <point x="505" y="481" />
      <point x="505" y="469" type="qcurve" />
    </contour>
    <contour>
      <point x="336" y="771" type="qcurve" />
      <point x="350" y="771" />
      <point x="350" y="757" type="qcurve" />
      <point x="350" y="750" />
      <point x="344" y="744" type="qcurve" />
      <point x="325" y="731" />
      <point x="291" y="690" />
      <point x="286" y="672" type="qcurve" />
      <point x="288" y="671" />
      <point x="307" y="667" />
      <point x="311" y="662" type="qcurve" />
      <point x="334" y="640" />
      <point x="334" y="594" />
      <point x="301" y="569" />
      <point x="259" y="569" />
      <point x="230" y="606" />
      <point x="226" y="640" type="qcurve" />
      <point x="226" y="676" />
      <point x="286" y="751" />
      <point x="328" y="769" type="qcurve" />
      <point x="332" y="771" />
    </contour>
  </outline>
</glyph>
<glyph name="Hbar" format="2">
  <unicode hex="0126" />
  <advance width="716" />
  <outline>
    <contour>
      <point x="627" y="536" type="line" />
      <point x="627" y="109" type="line" />
      <point x="630" y="0" type="line" />
      <point x="630" y="-10" />
      <point x="592" y="-10" />
      <point x="553" y="5" />
      <point x="553" y="18" type="qcurve" />
      <point x="555" y="110" type="line" />
      <point x="555" y="371" type="line" />
      <point x="549" y="370" type="line" />
      <point x="467" y="373" type="line" />
      <point x="186" y="356" type="line" />
      <point x="180" y="356" type="line" />
      <point x="180" y="108" type="line" />
      <point x="183" y="-1" type="line" />
      <point x="183" y="-11" />
      <point x="145" y="-11" />
      <point x="106" y="4" />
      <point x="106" y="17" type="qcurve" />
      <point x="109" y="109" type="line" />
      <point x="109" y="348" type="line" />
      <point x="106" y="347" />
      <point x="101" y="347" type="qcurve" />
      <point x="100" y="347" type="line" />
      <point x="87" y="347" />
      <point x="68" y="385" />
      <point x="68" y="418" />
      <point x="79" y="418" type="qcurve" />
      <point x="80" y="418" type="line" />
      <point x="109" y="417" type="line" />
      <point x="109" y="518" type="line" />
      <point x="83" y="517" type="line" />
      <point x="82" y="517" type="line" />
      <point x="69" y="517" />
      <point x="50" y="544" />
      <point x="50" y="581" />
      <point x="74" y="583" type="qcurve" />
      <point x="109" y="584" type="line" />
      <point x="109" y="603" type="line" />
      <point x="105" y="712" type="line" />
      <point x="105" y="722" />
      <point x="144" y="722" />
      <point x="182" y="707" />
      <point x="182" y="693" type="qcurve" />
      <point x="180" y="602" type="line" />
      <point x="180" y="586" type="line" />
      <point x="527" y="596" type="line" />
      <point x="536" y="597" />
      <point x="555" y="598" type="qcurve" />
      <point x="555" y="603" type="line" />
      <point x="552" y="712" type="line" />
      <point x="552" y="722" />
      <point x="591" y="722" />
      <point x="629" y="707" />
      <point x="629" y="693" type="qcurve" />
      <point x="627" y="602" type="line" />
      <point x="627" y="601" type="line" />
      <point x="641" y="601" type="line" />
      <point x="654" y="601" />
      <point x="673" y="574" />
      <point x="673" y="538" />
      <point x="651" y="537" type="qcurve" />
    </contour>
    <contour>
      <point x="180" y="520" type="line" />
      <point x="180" y="417" type="line" />
      <point x="185" y="417" type="line" />
      <point x="442" y="432" type="line" />
      <point x="466" y="434" />
      <point x="515" y="438" />
      <point x="527" y="440" type="qcurve" />
      <point x="530" y="440" type="line" />
      <point x="545" y="440" />
      <point x="555" y="416" type="qcurve" />
      <point x="555" y="535" type="line" />
      <point x="529" y="534" type="line" />
      <point x="353" y="525" type="line" />
      <point x="185" y="520" type="line" />
    </contour>
  </outline>
</glyph>
<glyph name="Itilde" format="2">
  <unicode hex="0128" />
  <advance width="311" />
  <outline>
    <contour>
      <point x="114" y="18" type="qcurve" />
      <point x="116" y="110" type="line" />
      <point x="116" y="603" type="line" />
      <point x="113" y="712" type="line" />
      <point x="113" y="722" />
      <point x="153" y="722" />
      <point x="194" y="707" />
      <point x="194" y="693" type="qcurve" />
      <point x="191" y="602" type="line" />
      <point x="191" y="109" type="line" />
      <point x="195" y="0" type="line" />
      <point x="195" y="-10" />
      <point x="155" y="-10" />
      <point x="114" y="5" />
    </contour>
    <contour>
      <point x="314" y="866" type="qcurve" />
      <point x="307" y="834" />
      <point x="256" y="777" />
      <point x="186" y="777" />
      <point x="145" y="803" />
      <point x="113" y="829" />
      <point x="93" y="829" type="qcurve" />
      <point x="51" y="829" />
      <point x="31" y="786" type="qcurve" />
      <point x="25" y="774" />
      <point x="16" y="774" type="qcurve" />
      <point x="-1" y="774" />
      <point x="-1" y="792" type="qcurve" />
      <point x="-1" y="806" />
      <point x="23" y="851" />
      <point x="67" y="888" />
      <point x="128" y="888" />
      <point x="169" y="861" />
      <point x="202" y="836" />
      <point x="221" y="836" type="qcurve" />
      <point x="263" y="836" />
      <point x="284" y="879" type="qcurve" />
      <point x="290" y="891" />
      <point x="297" y="891" type="qcurve" />
      <point x="315" y="891" />
      <point x="315" y="873" type="qcurve" />
      <point x="315" y="869" />
    </contour>
  </outline>
</glyph>
<glyph name="itilde" format="2">
  <unicode hex="0129" />
  <advance width="269" />
  <outline>
    <contour>
      <point x="97" y="17" type="qcurve" />
      <point x="99" y="108" type="line" />
      <point x="99" y="377" type="line" />
      <point x="96" y="486" type="line" />
      <point x="96" y="495" />
      <point x="133" y="496" />
      <point x="172" y="480" />
      <point x="172" y="468" type="qcurve" />
      <point x="170" y="377" type="line" />
      <point x="170" y="108" type="line" />
      <point x="173" y="-1" type="line" />
      <point x="173" y="-10" />
      <point x="137" y="-10" />
      <point x="97" y="5" />
    </contour>
    <contour>
      <point x="299" y="694" type="qcurve" />
      <point x="292" y="662" />
      <point x="241" y="605" />
      <point x="171" y="605" />
      <point x="130" y="631" />
      <point x="97" y="657" />
      <point x="78" y="657" type="qcurve" />
      <point x="36" y="657" />
      <point x="15" y="614" type="qcurve" />
      <point x="9" y="602" />
      <point x="2" y="602" type="qcurve" />
      <point x="-16" y="602" />
      <point x="-16" y="620" type="qcurve" />
      <point x="-16" y="634" />
      <point x="7" y="679" />
      <point x="51" y="716" />
      <point x="113" y="716" />
      <point x="154" y="689" />
      <point x="186" y="664" />
      <point x="206" y="664" type="qcurve" />
      <point x="248" y="664" />
      <point x="268" y="707" type="qcurve" />
      <point x="274" y="719" />
      <point x="283" y="719" type="qcurve" />
      <point x="300" y="719" />
      <point x="300" y="701" type="qcurve" />
      <point x="300" y="697" />
    </contour>
  </outline>
</glyph>
<glyph name="Imacron" format="2">
  <unicode hex="012A" />
  <advance width="311" />
  <outline>
    <contour>
      <point x="114" y="18" type="qcurve" />
      <point x="116" y="110" type="line" />
      <point x="116" y="603" type="line" />
      <point x="113" y="712" type="line" />
      <point x="113" y="722" />
      <point x="153" y="722" />
      <point x="194" y="707" />
      <point x="194" y="693" type="qcurve" />
      <point x="191" y="602" type="line" />
      <point x="191" y="109" type="line" />
      <point x="195" y="0" type="line" />
      <point x="195" y="-10" />
      <point x="155" y="-10" />
      <point x="114" y="5" />
    </contour>
    <contour>
      <point x="292" y="866" />
      <point x="292" y="803" />
      <point x="272" y="803" type="qcurve" />
      <point x="39" y="803" type="line" />
      <point x="21" y="803" />
      <point x="20" y="866" />
      <point x="40" y="866" type="qcurve" />
      <point x="273" y="866" type="line" />
    </contour>
  </outline>
</glyph>
<glyph name="imacron" format="2">
  <unicode hex="012B" />
  <advance width="269" />
  <outline>
    <contour>
      <point x="97" y="17" type="qcurve" />
      <point x="99" y="108" type="line" />
      <point x="99" y="377" type="line" />
      <point x="96" y="486" type="line" />
      <point x="96" y="495" />
      <point x="133" y="496" />
      <point x="172" y="480" />
      <point x="172" y="468" type="qcurve" />
      <point x="170" y="377" type="line" />
      <point x="170" y="108" type="line" />
      <point x="173" y="-1" type="line" />
      <point x="173" y="-10" />
      <point x="137" y="-10" />
      <point x="97" y="5" />
    </contour>
    <contour>
      <point x="269" y="695" />
      <point x="269" y="632" />
      <point x="250" y="632" type="qcurve" />
      <point x="16" y="632" type="line" />
      <point x="-2" y="632" />
      <point x="-2" y="695" />
      <point x="17" y="695" type="qcurve" />
      <point x="251" y="695" type="line" />
    </contour>
  </outline>
</glyph>
<glyph name="Ibreve" format="2">
  <unicode hex="012C" />
  <advance width="311" />
  <outline>
    <contour>
      <point x="116" y="18" type="qcurve" />
      <point x="118" y="110" type="line" />
      <point x="118" y="603" type="line" />
      <point x="115" y="712" type="line" />
      <point x="115" y="722" />
      <point x="155" y="722" />
      <point x="196" y="707" />
      <point x="196" y="693" type="qcurve" />
      <point x="194" y="602" type="line" />
      <point x="194" y="109" type="line" />
      <point x="197" y="0" type="line" />
      <point x="197" y="-10" />
      <point x="157" y="-10" />
      <point x="116" y="5" />
    </contour>
    <contour>
      <point x="298" y="895" />
      <point x="321" y="877" />
      <point x="321" y="869" type="qcurve" />
      <point x="321" y="851" />
      <point x="283" y="815" type="qcurve" />
      <point x="234" y="772" />
      <point x="78" y="772" />
      <point x="-13" y="850" />
      <point x="-13" y="868" type="qcurve" />
      <point x="-13" y="876" />
      <point x="9" y="895" />
      <point x="33" y="895" />
      <point x="39" y="885" type="qcurve" />
      <point x="53" y="861" />
      <point x="115" y="831" />
      <point x="194" y="831" />
      <point x="255" y="861" />
      <point x="268" y="885" type="qcurve" />
      <point x="274" y="895" />
    </contour>
  </outline>
</glyph>
<glyph name="Iogonek" format="2">
  <unicode hex="012E" />
  <advance width="311" />
  <outline>
    <contour>
      <point x="117" y="14" type="qcurve" />
      <point x="116" y="16" />
      <point x="116" y="18" type="qcurve" />
      <point x="118" y="110" type="line" />
      <point x="118" y="603" type="line" />
      <point x="115" y="712" type="line" />
      <point x="115" y="722" />
      <point x="155" y="722" />
      <point x="196" y="707" />
      <point x="196" y="693" type="qcurve" />
      <point x="194" y="602" type="line" />
      <point x="194" y="109" type="line" />
      <point x="197" y="0" type="line" />
      <point x="197" y="-10" />
      <point x="177" y="-10" type="qcurve" />
      <point x="169" y="-10" type="line" />
      <point x="139" y="-49" />
      <point x="139" y="-94" type="qcurve" />
      <point x="139" y="-128" />
      <point x="223" y="-128" />
      <point x="257" y="-98" type="qcurve" />
      <point x="268" y="-87" />
      <point x="290" y="-87" />
      <point x="290" y="-111" />
      <point x="256" y="-152" />
      <point x="202" y="-184" />
      <point x="120" y="-184" />
      <point x="70" y="-136" />
      <point x="70" y="-62" />
      <point x="84" y="-33" type="qcurve" />
      <point x="98" y="-3" />
    </contour>
  </outline>
</glyph>
<glyph name="iogonek" format="2">
  <unicode hex="012F" />
  <advance width="269" />
  <outline>
    <contour>
      <point x="184" y="674" />
      <point x="184" y="632" />
      <point x="158" y="604" />
      <point x="115" y="604" />
      <point x="83" y="644" />
      <point x="83" y="686" />
      <point x="109" y="715" />
      <point x="153" y="715" />
    </contour>
    <contour>
      <point x="97" y="17" type="line" />
      <point x="99" y="108" type="line" />
      <point x="99" y="377" type="line" />
      <point x="96" y="486" type="line" />
      <point x="96" y="495" />
      <point x="133" y="496" />
      <point x="172" y="480" />
      <point x="172" y="468" type="qcurve" />
      <point x="170" y="377" type="line" />
      <point x="170" y="108" type="line" />
      <point x="173" y="-1" type="line" />
      <point x="173" y="-10" />
      <point x="156" y="-10" type="qcurve" />
      <point x="150" y="-10" type="line" />
      <point x="120" y="-49" />
      <point x="120" y="-94" type="qcurve" />
      <point x="120" y="-128" />
      <point x="204" y="-128" />
      <point x="238" y="-98" type="qcurve" />
      <point x="249" y="-87" />
      <point x="270" y="-87" />
      <point x="270" y="-111" />
      <point x="237" y="-152" />
      <point x="182" y="-184" />
      <point x="100" y="-184" />
      <point x="50" y="-136" />
      <point x="50" y="-62" />
      <point x="78" y="-3" />
      <point x="97" y="14" type="qcurve" />
    </contour>
  </outline>
</glyph>
<glyph name="dotlessi" format="2">
  <unicode hex="0131" />
  <advance width="269" />
  <outline>
    <contour>
      <point x="97" y="17" type="qcurve" />
      <point x="99" y="108" type="line" />
      <point x="99" y="377" type="line" />
      <point x="96" y="486" type="line" />
      <point x="96" y="495" />
      <point x="133" y="496" />
      <point x="172" y="480" />
      <point x="172" y="468" type="qcurve" />
      <point x="170" y="377" type="line" />
      <point x="170" y="108" type="line" />
      <point x="173" y="-1" type="line" />
      <point x="173" y="-10" />
      <point x="137" y="-10" />
      <point x="97" y="5" />
    </contour>
  </outline>
</glyph>
<glyph name="ij" format="2">
  <unicode hex="0133" />
  <advance width="358" />
  <outline>
    <contour>
      <point x="306" y="468" type="qcurve" />
      <point x="304" y="373" type="line" />
      <point x="304" y="-31" type="line" />
      <point x="304" y="-108" />
      <point x="264" y="-144" type="qcurve" />
      <point x="241" y="-166" />
      <point x="152" y="-166" />
      <point x="93" y="-134" />
      <point x="93" y="-100" />
      <point x="114" y="-68" />
      <point x="136" y="-68" />
      <point x="147" y="-81" type="qcurve" />
      <point x="163" y="-103" />
      <point x="199" y="-102" type="qcurve" />
      <point x="216" y="-102" />
      <point x="234" y="-63" />
      <point x="234" y="-32" type="qcurve" />
      <point x="234" y="373" type="line" />
      <point x="231" y="486" type="line" />
      <point x="231" y="496" />
      <point x="268" y="497" />
      <point x="306" y="481" />
    </contour>
    <contour>
      <point x="289" y="715" />
      <point x="321" y="674" />
      <point x="321" y="632" />
      <point x="294" y="604" />
      <point x="251" y="604" />
      <point x="219" y="644" />
      <point x="219" y="686" />
      <point x="245" y="715" />
    </contour>
    <contour>
      <point x="56" y="17" type="qcurve" />
      <point x="58" y="108" type="line" />
      <point x="58" y="377" type="line" />
      <point x="55" y="486" type="line" />
      <point x="55" y="495" />
      <point x="92" y="496" />
      <point x="131" y="480" />
      <point x="131" y="468" type="qcurve" />
      <point x="129" y="377" type="line" />
      <point x="129" y="108" type="line" />
      <point x="132" y="-1" type="line" />
      <point x="132" y="-10" />
      <point x="96" y="-10" />
      <point x="56" y="5" />
    </contour>
    <contour>
      <point x="112" y="715" />
      <point x="143" y="674" />
      <point x="143" y="632" />
      <point x="117" y="604" />
      <point x="74" y="604" />
      <point x="42" y="644" />
      <point x="42" y="686" />
      <point x="68" y="715" />
    </contour>
  </outline>
</glyph>
<glyph name="Jcircumflex" format="2">
  <unicode hex="0134" />
  <advance width="503" />
  <outline>
    <contour>
      <point x="395" y="693" type="qcurve" />
      <point x="393" y="602" type="line" />
      <point x="393" y="181" type="line" />
      <point x="393" y="39" />
      <point x="301" y="0" type="qcurve" />
      <point x="260" y="-17" />
      <point x="161" y="-17" />
      <point x="85" y="19" />
      <point x="38" y="71" />
      <point x="16" y="117" />
      <point x="16" y="138" />
      <point x="35" y="162" />
      <point x="60" y="177" />
      <point x="81" y="177" />
      <point x="83" y="166" type="qcurve" />
      <point x="99" y="92" />
      <point x="148" y="66" type="qcurve" />
      <point x="179" y="51" />
      <point x="239" y="50" />
      <point x="264" y="61" type="qcurve" />
      <point x="320" y="87" />
      <point x="321" y="184" type="qcurve" />
      <point x="321" y="603" type="line" />
      <point x="317" y="712" type="line" />
      <point x="317" y="722" />
      <point x="356" y="722" />
      <point x="395" y="706" />
    </contour>
    <contour>
      <point x="356" y="844" type="qcurve" />
      <point x="253" y="778" />
      <point x="219" y="750" />
      <point x="211" y="750" type="qcurve" />
      <point x="193" y="750" />
      <point x="193" y="781" />
      <point x="275" y="865" type="qcurve" />
      <point x="295" y="887" />
      <point x="319" y="909" />
      <point x="341" y="913" />
      <point x="386" y="913" />
      <point x="411" y="889" />
      <point x="431" y="869" type="qcurve" />
      <point x="519" y="783" />
      <point x="519" y="750" />
      <point x="501" y="750" type="qcurve" />
      <point x="493" y="750" />
      <point x="456" y="782" />
    </contour>
  </outline>
</glyph>
<glyph name="uni0137" format="2">
  <unicode hex="0137" />
  <advance width="522" />
  <outline>
    <contour>
      <point x="92" y="18" type="qcurve" />
      <point x="94" y="109" type="line" />
      <point x="94" y="604" type="line" />
      <point x="91" y="714" type="line" />
      <point x="91" y="724" />
      <point x="128" y="724" />
      <point x="166" y="709" />
      <point x="166" y="695" type="qcurve" />
      <point x="162" y="604" type="line" />
      <point x="162" y="322" type="line" />
      <point x="354" y="455" type="line" />
      <point x="370" y="466" />
      <point x="395" y="490" type="qcurve" />
      <point x="399" y="495" />
      <point x="424" y="496" />
      <point x="438" y="490" type="qcurve" />
      <point x="473" y="478" />
      <point x="473" y="463" type="qcurve" />
      <point x="473" y="457" />
      <point x="406" y="418" />
      <point x="392" y="409" type="qcurve" />
      <point x="237" y="300" type="line" />
      <point x="267" y="271" />
      <point x="345" y="187" />
      <point x="427" y="103" />
      <point x="459" y="71" type="qcurve" />
      <point x="490" y="43" />
      <point x="517" y="31" type="qcurve" />
      <point x="522" y="29" />
      <point x="522" y="16" />
      <point x="512" y="8" type="qcurve" />
      <point x="487" y="-15" />
      <point x="465" y="-14" type="qcurve" />
      <point x="458" y="-14" />
      <point x="450" y="-8" type="qcurve" />
      <point x="404" y="30" />
      <point x="237" y="214" />
      <point x="186" y="264" type="qcurve" />
      <point x="162" y="249" type="line" />
      <point x="162" y="109" type="line" />
      <point x="167" y="0" type="line" />
      <point x="167" y="-10" />
      <point x="130" y="-10" />
      <point x="92" y="5" />
    </contour>
    <contour>
      <point x="220" y="-229" type="qcurve" />
      <point x="206" y="-229" />
      <point x="206" y="-215" type="qcurve" />
      <point x="206" y="-208" />
      <point x="212" y="-203" type="qcurve" />
      <point x="231" y="-190" />
      <point x="265" y="-148" />
      <point x="270" y="-130" type="qcurve" />
      <point x="268" y="-129" />
      <point x="249" y="-125" />
      <point x="245" y="-120" type="qcurve" />
      <point x="222" y="-98" />
      <point x="222" y="-52" />
      <point x="255" y="-28" />
      <point x="297" y="-28" />
      <point x="326" y="-65" />
      <point x="330" y="-98" type="qcurve" />
      <point x="330" y="-134" />
      <point x="270" y="-209" />
      <point x="228" y="-227" type="qcurve" />
      <point x="224" y="-229" />
    </contour>
  </outline>
</glyph>
<glyph name="Lacute" format="2">
  <unicode hex="0139" />
  <advance width="560" />
  <outline>
    <contour>
      <point x="182" y="60" type="line" />
      <point x="262" y="65" />
      <point x="353" y="66" type="qcurve" />
      <point x="469" y="66" type="line" />
      <point x="494" y="66" />
      <point x="507" y="67" type="qcurve" />
      <point x="508" y="67" type="line" />
      <point x="521" y="67" />
      <point x="541" y="28" />
      <point x="541" y="-5" />
      <point x="529" y="-5" type="qcurve" />
      <point x="528" y="-5" type="line" />
      <point x="488" y="1" />
      <point x="423" y="1" type="qcurve" />
      <point x="381" y="1" type="line" />
      <point x="184" y="1" />
      <point x="145" y="-9" type="qcurve" />
      <point x="142" y="-9" type="line" />
      <point x="125" y="-9" />
      <point x="109" y="19" type="qcurve" />
      <point x="102" y="30" />
      <point x="101" y="45" />
      <point x="109" y="59" />
      <point x="109" y="72" type="qcurve" />
      <point x="109" y="603" type="line" />
      <point x="105" y="712" type="line" />
      <point x="105" y="722" />
      <point x="144" y="722" />
      <point x="184" y="707" />
      <point x="184" y="693" type="qcurve" />
      <point x="182" y="602" type="line" />
    </contour>
    <contour>
      <point x="315" y="836" type="qcurve" />
      <point x="265" y="818" />
      <point x="166" y="782" />
      <point x="125" y="759" />
      <point x="113" y="759" />
      <point x="102" y="769" />
      <point x="102" y="776" type="qcurve" />
      <point x="102" y="798" />
      <point x="256" y="900" type="qcurve" />
      <point x="258" y="901" />
      <point x="272" y="901" />
      <point x="287" y="891" type="qcurve" />
      <point x="323" y="866" />
      <point x="323" y="846" type="qcurve" />
      <point x="322" y="839" />
    </contour>
  </outline>
</glyph>
<glyph name="lacute" format="2">
  <unicode hex="013A" />
  <advance width="269" />
  <outline>
    <contour>
      <point x="175" y="45" type="qcurve" />
      <point x="179" y="41" />
      <point x="187" y="41" type="qcurve" />
      <point x="189" y="41" type="line" />
      <point x="211" y="42" />
      <point x="238" y="70" type="qcurve" />
      <point x="250" y="81" />
      <point x="269" y="81" />
      <point x="269" y="48" />
      <point x="242" y="13" type="qcurve" />
      <point x="211" y="-22" />
      <point x="180" y="-22" type="qcurve" />
      <point x="170" y="-22" type="line" />
      <point x="135" y="-18" />
      <point x="118" y="5" type="qcurve" />
      <point x="101" y="30" />
      <point x="99" y="77" type="qcurve" />
      <point x="99" y="604" type="line" />
      <point x="96" y="714" type="line" />
      <point x="96" y="724" />
      <point x="134" y="724" />
      <point x="172" y="709" />
      <point x="172" y="695" type="qcurve" />
      <point x="170" y="604" type="line" />
      <point x="170" y="80" type="line" />
      <point x="170" y="52" />
    </contour>
    <contour>
      <point x="307" y="836" type="qcurve" />
      <point x="257" y="818" />
      <point x="158" y="782" />
      <point x="117" y="759" />
      <point x="104" y="759" />
      <point x="94" y="769" />
      <point x="94" y="776" type="qcurve" />
      <point x="94" y="798" />
      <point x="248" y="900" type="qcurve" />
      <point x="250" y="901" />
      <point x="264" y="901" />
      <point x="279" y="891" type="qcurve" />
      <point x="315" y="866" />
      <point x="314" y="846" type="qcurve" />
      <point x="314" y="839" />
    </contour>
  </outline>
</glyph>
<glyph name="uni013B" format="2">
  <unicode hex="013B" />
  <advance width="560" />
  <outline>
    <contour>
      <point x="182" y="60" type="line" />
      <point x="262" y="65" />
      <point x="353" y="66" type="qcurve" />
      <point x="469" y="66" type="line" />
      <point x="494" y="66" />
      <point x="507" y="67" type="qcurve" />
      <point x="508" y="67" type="line" />
      <point x="521" y="67" />
      <point x="541" y="28" />
      <point x="541" y="-5" />
      <point x="529" y="-5" type="qcurve" />
      <point x="528" y="-5" type="line" />
      <point x="488" y="1" />
      <point x="423" y="1" type="qcurve" />
      <point x="381" y="1" type="line" />
      <point x="184" y="1" />
      <point x="145" y="-9" type="qcurve" />
      <point x="142" y="-9" type="line" />
      <point x="125" y="-9" />
      <point x="109" y="19" type="qcurve" />
      <point x="102" y="30" />
      <point x="101" y="45" />
      <point x="109" y="59" />
      <point x="109" y="72" type="qcurve" />
      <point x="109" y="603" type="line" />
      <point x="105" y="712" type="line" />
      <point x="105" y="722" />
      <point x="144" y="722" />
      <point x="184" y="707" />
      <point x="184" y="693" type="qcurve" />
      <point x="182" y="602" type="line" />
    </contour>
    <contour>
      <point x="261" y="-229" type="qcurve" />
      <point x="247" y="-229" />
      <point x="247" y="-215" type="qcurve" />
      <point x="247" y="-208" />
      <point x="253" y="-203" type="qcurve" />
      <point x="272" y="-190" />
      <point x="306" y="-148" />
      <point x="311" y="-130" type="qcurve" />
      <point x="309" y="-129" />
      <point x="290" y="-125" />
      <point x="286" y="-120" type="qcurve" />
      <point x="263" y="-98" />
      <point x="263" y="-52" />
      <point x="296" y="-28" />
      <point x="338" y="-28" />
      <point x="367" y="-65" />
      <point x="371" y="-98" type="qcurve" />
      <point x="371" y="-134" />
      <point x="311" y="-209" />
      <point x="269" y="-227" type="qcurve" />
      <point x="265" y="-229" />
    </contour>
  </outline>
</glyph>
<glyph name="uni013C" format="2">
  <unicode hex="013C" />
  <advance width="269" />
  <outline>
    <contour>
      <point x="175" y="45" type="qcurve" />
      <point x="179" y="41" />
      <point x="187" y="41" type="qcurve" />
      <point x="189" y="41" type="line" />
      <point x="211" y="42" />
      <point x="238" y="70" type="qcurve" />
      <point x="250" y="81" />
      <point x="269" y="81" />
      <point x="269" y="48" />
      <point x="242" y="13" type="qcurve" />
      <point x="211" y="-22" />
      <point x="180" y="-22" type="qcurve" />
      <point x="170" y="-22" type="line" />
      <point x="135" y="-18" />
      <point x="118" y="5" type="qcurve" />
      <point x="101" y="30" />
      <point x="99" y="77" type="qcurve" />
      <point x="99" y="604" type="line" />
      <point x="96" y="714" type="line" />
      <point x="96" y="724" />
      <point x="134" y="724" />
      <point x="172" y="709" />
      <point x="172" y="695" type="qcurve" />
      <point x="170" y="604" type="line" />
      <point x="170" y="80" type="line" />
      <point x="170" y="52" />
    </contour>
    <contour>
      <point x="128" y="-240" type="qcurve" />
      <point x="114" y="-240" />
      <point x="114" y="-225" type="qcurve" />
      <point x="114" y="-218" />
      <point x="120" y="-213" type="qcurve" />
      <point x="139" y="-200" />
      <point x="173" y="-159" />
      <point x="178" y="-140" type="qcurve" />
      <point x="176" y="-139" />
      <point x="157" y="-135" />
      <point x="153" y="-130" type="qcurve" />
      <point x="130" y="-108" />
      <point x="130" y="-62" />
      <point x="163" y="-38" />
      <point x="205" y="-38" />
      <point x="233" y="-75" />
      <point x="238" y="-109" type="qcurve" />
      <point x="238" y="-145" />
      <point x="178" y="-219" />
      <point x="136" y="-238" type="qcurve" />
      <point x="132" y="-240" />
    </contour>
  </outline>
</glyph>
<glyph name="Lcaron" format="2">
  <unicode hex="013D" />
  <advance width="560" />
  <outline>
    <contour>
      <point x="182" y="60" type="line" />
      <point x="262" y="65" />
      <point x="353" y="66" type="qcurve" />
      <point x="469" y="66" type="line" />
      <point x="494" y="66" />
      <point x="507" y="67" type="qcurve" />
      <point x="508" y="67" type="line" />
      <point x="521" y="67" />
      <point x="541" y="28" />
      <point x="541" y="-5" />
      <point x="529" y="-5" type="qcurve" />
      <point x="528" y="-5" type="line" />
      <point x="488" y="1" />
      <point x="423" y="1" type="qcurve" />
      <point x="381" y="1" type="line" />
      <point x="184" y="1" />
      <point x="145" y="-9" type="qcurve" />
      <point x="142" y="-9" type="line" />
      <point x="125" y="-9" />
      <point x="109" y="19" type="qcurve" />
      <point x="102" y="30" />
      <point x="101" y="45" />
      <point x="109" y="59" />
      <point x="109" y="72" type="qcurve" />
      <point x="109" y="603" type="line" />
      <point x="105" y="712" type="line" />
      <point x="105" y="722" />
      <point x="144" y="722" />
      <point x="184" y="707" />
      <point x="184" y="693" type="qcurve" />
      <point x="182" y="602" type="line" />
    </contour>
    <contour>
      <point x="407" y="506" type="line" />
      <point x="407" y="493" />
      <point x="355" y="493" />
      <point x="353" y="506" type="qcurve" />
      <point x="348" y="686" type="line" />
      <point x="348" y="695" />
      <point x="369" y="705" />
      <point x="380" y="705" type="qcurve" />
      <point x="412" y="705" />
      <point x="412" y="687" type="qcurve" />
      <point x="412" y="686" type="line" />
    </contour>
  </outline>
</glyph>
<glyph name="Ldot" format="2">
  <unicode hex="013F" />
  <advance width="560" />
  <outline>
    <contour>
      <point x="182" y="60" type="line" />
      <point x="262" y="65" />
      <point x="353" y="66" type="qcurve" />
      <point x="469" y="66" type="line" />
      <point x="494" y="66" />
      <point x="507" y="67" type="qcurve" />
      <point x="508" y="67" type="line" />
      <point x="521" y="67" />
      <point x="541" y="28" />
      <point x="541" y="-5" />
      <point x="529" y="-5" type="qcurve" />
      <point x="528" y="-5" type="line" />
      <point x="488" y="1" />
      <point x="423" y="1" type="qcurve" />
      <point x="381" y="1" type="line" />
      <point x="184" y="1" />
      <point x="145" y="-9" type="qcurve" />
      <point x="142" y="-9" type="line" />
      <point x="125" y="-9" />
      <point x="109" y="19" type="qcurve" />
      <point x="102" y="30" />
      <point x="101" y="45" />
      <point x="109" y="59" />
      <point x="109" y="72" type="qcurve" />
      <point x="109" y="603" type="line" />
      <point x="105" y="712" type="line" />
      <point x="105" y="722" />
      <point x="144" y="722" />
      <point x="184" y="707" />
      <point x="184" y="693" type="qcurve" />
      <point x="182" y="602" type="line" />
    </contour>
    <contour>
      <point x="461" y="428" />
      <point x="435" y="401" />
      <point x="392" y="401" />
      <point x="357" y="443" />
      <point x="357" y="486" />
      <point x="382" y="513" />
      <point x="425" y="513" />
      <point x="461" y="473" />
    </contour>
  </outline>
</glyph>
<glyph name="ldot" format="2">
  <unicode hex="0140" />
  <advance width="307" />
  <outline>
    <contour>
      <point x="175" y="45" type="qcurve" />
      <point x="179" y="41" />
      <point x="187" y="41" type="qcurve" />
      <point x="189" y="41" type="line" />
      <point x="211" y="42" />
      <point x="238" y="70" type="qcurve" />
      <point x="250" y="81" />
      <point x="269" y="81" />
      <point x="269" y="48" />
      <point x="242" y="13" type="qcurve" />
      <point x="211" y="-22" />
      <point x="180" y="-22" type="qcurve" />
      <point x="170" y="-22" type="line" />
      <point x="135" y="-18" />
      <point x="118" y="5" type="qcurve" />
      <point x="101" y="30" />
      <point x="99" y="77" type="qcurve" />
      <point x="99" y="604" type="line" />
      <point x="96" y="714" type="line" />
      <point x="96" y="724" />
      <point x="134" y="724" />
      <point x="172" y="709" />
      <point x="172" y="695" type="qcurve" />
      <point x="170" y="604" type="line" />
      <point x="170" y="80" type="line" />
      <point x="170" y="52" />
    </contour>
    <contour>
      <point x="307" y="428" />
      <point x="282" y="401" />
      <point x="239" y="401" />
      <point x="204" y="443" />
      <point x="204" y="486" />
      <point x="228" y="513" />
      <point x="271" y="513" />
      <point x="307" y="473" />
    </contour>
  </outline>
</glyph>
<glyph name="Ncaron" format="2">
  <unicode hex="0147" />
  <advance width="755" />
  <outline>
    <contour>
      <point x="109" y="656" type="line" />
      <point x="101" y="694" type="line" />
      <point x="101" y="708" />
      <point x="147" y="725" />
      <point x="169" y="725" />
      <point x="181" y="723" />
      <point x="186" y="715" type="qcurve" />
      <point x="212" y="668" />
      <point x="453" y="283" />
      <point x="580" y="106" type="qcurve" />
      <point x="580" y="603" type="line" />
      <point x="575" y="712" type="line" />
      <point x="575" y="722" />
      <point x="614" y="722" />
      <point x="652" y="707" />
      <point x="652" y="693" type="qcurve" />
      <point x="650" y="602" type="line" />
      <point x="650" y="89" type="line" />
      <point x="654" y="33" type="line" />
      <point x="654" y="23" />
      <point x="645" y="12" type="qcurve" />
      <point x="621" y="-14" />
      <point x="578" y="-13" />
      <point x="558" y="15" />
      <point x="532" y="52" type="qcurve" />
      <point x="335" y="328" />
      <point x="179" y="593" type="qcurve" />
      <point x="179" y="108" type="line" />
      <point x="182" y="-1" type="line" />
      <point x="182" y="-11" />
      <point x="145" y="-11" />
      <point x="106" y="4" />
      <point x="106" y="17" type="qcurve" />
      <point x="109" y="109" type="line" />
    </contour>
    <contour>
      <point x="378" y="823" type="qcurve" />
      <point x="414" y="847" />
      <point x="483" y="891" />
      <point x="514" y="918" />
      <point x="522" y="918" type="qcurve" />
      <point x="540" y="918" />
      <point x="541" y="884" />
      <point x="453" y="798" type="qcurve" />
      <point x="433" y="779" />
      <point x="408" y="754" />
      <point x="347" y="754" />
      <point x="336" y="763" type="qcurve" />
      <point x="264" y="831" />
      <point x="214" y="896" />
      <point x="214" y="901" type="qcurve" />
      <point x="214" y="917" />
      <point x="232" y="918" type="qcurve" />
      <point x="240" y="918" />
      <point x="271" y="891" />
      <point x="342" y="847" />
    </contour>
  </outline>
</glyph>
<glyph name="napostrophe" format="2">
  <unicode hex="0149" />
  <advance width="602" />
  <outline>
    <contour>
      <point x="508" y="108" type="line" />
      <point x="511" y="-1" type="line" />
      <point x="511" y="-11" />
      <point x="475" y="-11" />
      <point x="438" y="4" />
      <point x="438" y="16" type="qcurve" />
      <point x="438" y="17" type="line" />
      <point x="439" y="25" />
      <point x="439" y="45" type="qcurve" />
      <point x="440" y="118" type="line" />
      <point x="440" y="300" type="line" />
      <point x="440" y="360" />
      <point x="408" y="433" />
      <point x="356" y="433" type="qcurve" />
      <point x="275" y="433" />
      <point x="166" y="315" />
      <point x="164" y="166" type="qcurve" />
      <point x="163" y="132" />
      <point x="162" y="108" type="qcurve" />
      <point x="162" y="91" type="line" />
      <point x="162" y="60" />
      <point x="165" y="-1" type="qcurve" />
      <point x="165" y="-11" />
      <point x="129" y="-11" />
      <point x="92" y="4" />
      <point x="92" y="17" type="qcurve" />
      <point x="94" y="118" type="line" />
      <point x="94" y="373" type="line" />
      <point x="91" y="482" type="line" />
      <point x="91" y="492" />
      <point x="127" y="493" />
      <point x="164" y="477" />
      <point x="164" y="464" type="qcurve" />
      <point x="164" y="450" type="line" />
      <point x="162" y="421" />
      <point x="162" y="385" type="qcurve" />
      <point x="195" y="439" />
      <point x="300" y="497" />
      <point x="352" y="497" type="qcurve" />
      <point x="446" y="497" />
      <point x="481" y="432" type="qcurve" />
      <point x="508" y="385" />
      <point x="508" y="304" type="qcurve" />
    </contour>
    <contour>
      <point x="60" y="540" type="qcurve" />
      <point x="46" y="540" />
      <point x="46" y="554" type="qcurve" />
      <point x="46" y="562" />
      <point x="52" y="566" type="qcurve" />
      <point x="71" y="579" />
      <point x="106" y="621" />
      <point x="111" y="639" type="qcurve" />
      <point x="109" y="640" />
      <point x="90" y="644" />
      <point x="85" y="649" type="qcurve" />
      <point x="62" y="668" />
      <point x="62" y="717" />
      <point x="95" y="741" />
      <point x="137" y="741" />
      <point x="166" y="705" />
      <point x="170" y="671" type="qcurve" />
      <point x="170" y="636" />
      <point x="111" y="560" />
      <point x="69" y="542" type="qcurve" />
      <point x="64" y="540" />
    </contour>
  </outline>
</glyph>
<glyph name="Eng" format="2">
  <unicode hex="014A" />
  <advance width="755" />
  <outline>
    <contour>
      <point x="566" y="3" type="qcurve" />
      <point x="556" y="18" />
      <point x="532" y="52" type="qcurve" />
      <point x="335" y="328" />
      <point x="179" y="593" type="qcurve" />
      <point x="179" y="108" type="line" />
      <point x="182" y="-1" type="line" />
      <point x="182" y="-11" />
      <point x="145" y="-11" />
      <point x="106" y="4" />
      <point x="106" y="17" type="qcurve" />
      <point x="109" y="109" type="line" />
      <point x="109" y="656" type="line" />
      <point x="101" y="694" type="line" />
      <point x="101" y="708" />
      <point x="147" y="725" />
      <point x="169" y="725" />
      <point x="181" y="723" />
      <point x="186" y="715" type="qcurve" />
      <point x="212" y="668" />
      <point x="453" y="283" />
      <point x="580" y="106" type="qcurve" />
      <point x="580" y="603" type="line" />
      <point x="575" y="712" type="line" />
      <point x="575" y="722" />
      <point x="614" y="722" />
      <point x="652" y="707" />
      <point x="652" y="693" type="qcurve" />
      <point x="650" y="602" type="line" />
      <point x="650" y="89" type="line" />
      <point x="654" y="33" type="line" />
      <point x="654" y="23" />
      <point x="645" y="12" type="qcurve" />
      <point x="638" y="5" type="line" />
      <point x="638" y="-137" />
      <point x="528" y="-137" type="qcurve" />
      <point x="478" y="-137" />
      <point x="417" y="-103" />
      <point x="417" y="-68" />
      <point x="438" y="-33" />
      <point x="462" y="-33" />
      <point x="492" y="-70" />
      <point x="528" y="-70" type="qcurve" />
      <point x="546" y="-70" />
      <point x="557" y="-49" type="qcurve" />
      <point x="566" y="-30" />
    </contour>
  </outline>
</glyph>
<glyph name="Omacron" format="2">
  <unicode hex="014C" />
  <advance width="762" />
  <outline>
    <contour>
      <point x="170" y="129" />
      <point x="276" y="47" />
      <point x="356" y="47" type="qcurve" />
      <point x="503" y="47" />
      <point x="572" y="148" type="qcurve" />
      <point x="633" y="239" />
      <point x="634" y="380" type="qcurve" />
      <point x="634" y="495" />
      <point x="512" y="669" />
      <point x="402" y="669" type="qcurve" />
      <point x="358" y="669" />
      <point x="259" y="628" />
      <point x="173" y="547" />
      <point x="119" y="426" />
      <point x="119" y="265" />
    </contour>
    <contour>
      <point x="131" y="624" />
      <point x="180" y="674" />
      <point x="212" y="674" />
      <point x="222" y="662" type="qcurve" />
      <point x="300" y="731" />
      <point x="501" y="730" />
      <point x="634" y="637" />
      <point x="706" y="475" />
      <point x="706" y="384" type="qcurve" />
      <point x="706" y="205" />
      <point x="625" y="97" type="qcurve" />
      <point x="536" y="-19" />
      <point x="369" y="-18" type="qcurve" />
      <point x="258" y="-18" />
      <point x="117" y="77" />
      <point x="48" y="241" />
      <point x="48" y="414" />
      <point x="82" y="534" />
    </contour>
    <contour>
      <point x="517" y="866" />
      <point x="517" y="803" />
      <point x="498" y="803" type="qcurve" />
      <point x="264" y="803" type="line" />
      <point x="246" y="803" />
      <point x="246" y="866" />
      <point x="265" y="866" type="qcurve" />
      <point x="499" y="866" type="line" />
    </contour>
  </outline>
</glyph>
<glyph name="Obreve" format="2">
  <unicode hex="014E" />
  <advance width="762" />
  <outline>
    <contour>
      <point x="176" y="129" />
      <point x="283" y="47" />
      <point x="362" y="47" type="qcurve" />
      <point x="509" y="47" />
      <point x="579" y="148" type="qcurve" />
      <point x="640" y="239" />
      <point x="640" y="380" type="qcurve" />
      <point x="640" y="495" />
      <point x="518" y="669" />
      <point x="409" y="669" type="qcurve" />
      <point x="365" y="669" />
      <point x="265" y="628" />
      <point x="179" y="547" />
      <point x="125" y="426" />
      <point x="125" y="265" />
    </contour>
    <contour>
      <point x="137" y="624" />
      <point x="186" y="674" />
      <point x="218" y="674" />
      <point x="228" y="662" type="qcurve" />
      <point x="306" y="731" />
      <point x="507" y="730" />
      <point x="640" y="637" />
      <point x="712" y="475" />
      <point x="712" y="384" type="qcurve" />
      <point x="712" y="205" />
      <point x="631" y="97" type="qcurve" />
      <point x="542" y="-19" />
      <point x="375" y="-18" type="qcurve" />
      <point x="265" y="-18" />
      <point x="123" y="77" />
      <point x="54" y="241" />
      <point x="54" y="414" />
      <point x="88" y="534" />
    </contour>
    <contour>
      <point x="544" y="914" />
      <point x="566" y="896" />
      <point x="566" y="889" type="qcurve" />
      <point x="566" y="871" />
      <point x="528" y="835" type="qcurve" />
      <point x="479" y="792" />
      <point x="324" y="792" />
      <point x="232" y="869" />
      <point x="232" y="888" type="qcurve" />
      <point x="232" y="896" />
      <point x="255" y="914" />
      <point x="279" y="914" />
      <point x="285" y="904" type="qcurve" />
      <point x="299" y="880" />
      <point x="360" y="851" />
      <point x="439" y="851" />
      <point x="501" y="881" />
      <point x="514" y="904" type="qcurve" />
      <point x="520" y="914" />
    </contour>
  </outline>
</glyph>
